<svg width="70" height="55" viewBox="0 0 70 55" fill="none" xmlns="http://www.w3.org/2000/svg">
<g clip-path="url(#clip0_4_451)">
<path fill-rule="evenodd" clip-rule="evenodd" d="M29.27 23.67C32.1248 26.0971 34.178 29.3315 35.1597 32.9477C36.1414 36.5638 36.0055 40.3925 34.77 43.93H53.18C54.93 38.8 60.18 35.86 66.13 38.34L68.26 25.96C68.62 23.87 66.51 22.11 64.37 22.11H52.48V12.79C52.4777 12.4369 52.3391 12.0983 52.0931 11.8449C51.8472 11.5915 51.5129 11.4429 51.16 11.43V6.61H49.35V11.43C49.0042 11.4528 48.6799 11.6057 48.4424 11.8581C48.2048 12.1104 48.0718 12.4434 48.07 12.79V22.11H38.79C40.56 13.81 38.49 10.98 37.3 2.53C37.1142 2.04348 36.7739 1.63134 36.3314 1.35678C35.8888 1.08222 35.3684 0.960399 34.85 1.01H13.23C12.7261 0.996883 12.2323 1.15338 11.828 1.45439C11.4236 1.7554 11.132 2.18348 11 2.67L9.54001 16.67L6.62001 20.04C5.34001 21.5 5.72001 21.16 6.89001 22.91C7.09001 22.76 7.29001 22.62 7.50001 22.49C13.64 18.5 23.48 19.23 29.27 23.67ZM50.91 4.02C50.9524 3.98135 51.0077 3.95992 51.065 3.95992C51.1224 3.95992 51.1776 3.98135 51.22 4.02C51.2609 4.06121 51.2839 4.11692 51.2839 4.175C51.2839 4.23307 51.2609 4.28878 51.22 4.33C51.06 4.49 51.12 4.73 51.22 4.96C51.32 5.19 51.41 5.68 50.95 5.96C50.8996 5.98905 50.8397 5.99694 50.7835 5.98195C50.7273 5.96695 50.6793 5.93029 50.65 5.88C50.6359 5.85579 50.6267 5.829 50.6231 5.8012C50.6194 5.7734 50.6214 5.74515 50.6288 5.71812C50.6363 5.69109 50.6491 5.66583 50.6665 5.64382C50.6838 5.62182 50.7055 5.60352 50.73 5.59C50.9 5.49 50.85 5.3 50.8 5.09C50.7145 4.9197 50.6794 4.72851 50.6989 4.53895C50.7184 4.34938 50.7916 4.16933 50.91 4.02ZM49.59 4.02C49.6324 3.98135 49.6877 3.95992 49.745 3.95992C49.8024 3.95992 49.8576 3.98135 49.9 4.02C49.9409 4.06121 49.9639 4.11692 49.9639 4.175C49.9639 4.23307 49.9409 4.28878 49.9 4.33C49.73 4.49 49.8 4.73 49.9 4.96C50 5.19 50.09 5.68 49.63 5.96C49.6058 5.97415 49.579 5.98332 49.5512 5.98696C49.5234 5.99059 49.4952 5.98862 49.4681 5.98117C49.4411 5.97371 49.4158 5.96092 49.3938 5.94354C49.3718 5.92617 49.3535 5.90456 49.34 5.88C49.324 5.85683 49.3131 5.83054 49.3079 5.80286C49.3027 5.77517 49.3035 5.7467 49.3101 5.71933C49.3167 5.69195 49.329 5.66628 49.3462 5.64399C49.3635 5.6217 49.3852 5.6033 49.41 5.59C49.58 5.49 49.53 5.3 49.48 5.09C49.3945 4.9197 49.3594 4.72851 49.3789 4.53895C49.3984 4.34938 49.4716 4.16933 49.59 4.02ZM25.68 5.63V15.93C28.1141 16.4754 30.4989 17.2212 32.81 18.16C34.03 18.65 35.48 17.06 35.22 15.77L33.65 8.01C33.595 7.39222 33.3226 6.81399 32.8813 6.37819C32.44 5.94238 31.8584 5.67726 31.24 5.63H25.68ZM23.29 15.5V5.63H17.29C15.97 5.63 15.19 6.74 14.88 8.02L13.88 12.47C13.58 13.75 14.96 14.83 16.29 14.85C18.6366 14.8854 20.977 15.1028 23.29 15.5ZM62.4 39.33C63.8265 39.3458 65.2164 39.7832 66.3948 40.5872C67.5732 41.3911 68.4874 42.5258 69.0224 43.8482C69.5573 45.1706 69.6891 46.6217 69.4012 48.0189C69.1133 49.4161 68.4184 50.6968 67.4042 51.7C66.3899 52.7031 65.1016 53.3838 63.7014 53.6564C62.3011 53.9289 60.8515 53.7811 59.5351 53.2317C58.2186 52.6822 57.0941 51.7555 56.3032 50.5683C55.5122 49.3812 55.0901 47.9865 55.09 46.56C55.0953 45.6053 55.2885 44.6609 55.6587 43.7809C56.0289 42.9009 56.5688 42.1024 57.2476 41.431C57.9264 40.7596 58.7308 40.2285 59.6148 39.8681C60.4989 39.5076 61.4453 39.3247 62.4 39.33ZM16.34 23.11C20.4376 23.11 24.3674 24.7378 27.2648 27.6352C30.1623 30.5326 31.79 34.4624 31.79 38.56C31.79 42.6576 30.1623 46.5874 27.2648 49.4848C24.3674 52.3822 20.4376 54.01 16.34 54.01C12.2424 54.01 8.31265 52.3822 5.41522 49.4848C2.51778 46.5874 0.890015 42.6576 0.890015 38.56C0.890015 34.4624 2.51778 30.5326 5.41522 27.6352C8.31265 24.7378 12.2424 23.11 16.34 23.11ZM16.34 30.25C17.9796 30.2678 19.5773 30.7702 20.932 31.694C22.2867 32.6179 23.3378 33.9218 23.953 35.4418C24.5682 36.9617 24.72 38.6297 24.3892 40.2357C24.0585 41.8417 23.26 43.3139 22.0943 44.4671C20.9287 45.6203 19.4479 46.4029 17.8384 46.7163C16.2289 47.0297 14.5627 46.86 13.0495 46.2285C11.5363 45.5969 10.2437 44.5318 9.33449 43.1673C8.4253 41.8027 7.94011 40.1997 7.94001 38.56C7.95324 36.3445 8.84535 34.2249 10.4204 32.6667C11.9954 31.1086 14.1245 30.2394 16.34 30.25ZM62.4 42.89C63.1241 42.8979 63.8297 43.1198 64.4279 43.5279C65.0262 43.9359 65.4904 44.5118 65.762 45.183C66.0337 45.8543 66.1006 46.5909 65.9546 47.3002C65.8085 48.0094 65.4558 48.6596 64.941 49.1689C64.4262 49.6782 63.7722 50.0237 63.0614 50.1621C62.3506 50.3005 61.6148 50.2256 60.9465 49.9466C60.2782 49.6677 59.7074 49.1974 59.3059 48.5947C58.9043 47.9921 58.6901 47.2841 58.69 46.56C58.6926 46.0754 58.7907 45.5961 58.9785 45.1494C59.1664 44.7027 59.4404 44.2974 59.7849 43.9566C60.1294 43.6158 60.5377 43.3462 60.9864 43.1632C61.4351 42.9802 61.9154 42.8874 62.4 42.89ZM51.53 26.63H60.77L60.56 27.69H51.35L51.53 26.63ZM48.29 32.32H60.77L60.56 33.38H48.1L48.29 32.32ZM49.44 29.5H60.77L60.56 30.5H49.26L49.44 29.5Z" fill="url(#paint0_linear_4_451)"/>
</g>
<defs>
<linearGradient id="paint0_linear_4_451" x1="66.47" y1="13.64" x2="5.59002" y2="43.47" gradientUnits="userSpaceOnUse">
<stop stop-color="#08C58B"/>
<stop offset="1" stop-color="#0DFFB6"/>
</linearGradient>
<clipPath id="clip0_4_451">
<rect width="70" height="54" fill="white" transform="translate(0 0.5)"/>
</clipPath>
</defs>
</svg>
