<svg width="48" height="61" viewBox="0 0 48 61" fill="none" xmlns="http://www.w3.org/2000/svg">
<g clip-path="url(#clip0_4_470)">
<path d="M12.6216 14H5.5451L2 20.25L5.5451 26.5H12.6216L16.1667 20.25L12.6216 14Z" stroke="url(#paint0_linear_4_470)" stroke-width="2" stroke-miterlimit="10"/>
<path d="M12.6353 1.5H5.5451L2 7.743L5.5451 14H12.6353L16.1667 7.743L12.6353 1.5Z" stroke="url(#paint1_linear_4_470)" stroke-width="2" stroke-miterlimit="10"/>
<path d="M23.4639 7.33301H16.3668L12.832 14.0071L16.3668 20.6663H23.4639L26.9987 14.0071L23.4639 7.33301Z" stroke="url(#paint2_linear_4_470)" stroke-width="2" stroke-miterlimit="10"/>
<path d="M45.0767 27.131C45.1284 23.7167 43.7319 20.3554 41.7449 17.5053C40.7602 16.093 38.9745 14.1768 37.4073 12.6036C36.7444 11.9381 36.1261 11.3394 35.6329 10.8738C35.792 11.6498 35.9546 12.4258 36.1174 13.2031C36.55 15.2685 36.9848 17.3438 37.3624 19.4569C37.5517 20.4919 37.7573 21.5323 37.9637 22.5764C38.8345 26.982 39.7183 31.4534 39.4438 35.8687C39.7971 35.7741 40.1305 35.6525 40.458 35.5039C43.3605 34.1327 45.0248 30.5837 45.0767 27.131Z" stroke="url(#paint3_linear_4_470)"/>
<path d="M29.4852 28.9033L29.4846 28.9015C28.4537 25.5804 28.9447 21.9525 30.2752 18.7268C30.4239 18.3697 31.4933 16.3509 32.6339 14.2791C33.1995 13.2517 33.7752 12.2245 34.2513 11.4036C34.3766 11.1875 34.4932 10.9888 34.5997 10.8101C34.7857 11.7273 34.975 12.638 35.164 13.5478C35.5824 15.5613 35.9998 17.5705 36.3797 19.6356C36.5766 20.7123 36.7881 21.7835 36.9986 22.8497C37.8825 27.3263 38.749 31.7151 38.4468 36.055L29.4852 28.9033ZM29.4852 28.9033C30.0154 30.6337 31.0892 32.4082 32.5076 33.7627C33.9261 35.1173 35.6561 36.0221 37.4985 36.0886L29.4852 28.9033Z" stroke="url(#paint4_linear_4_470)"/>
<path d="M35.0107 10.4195C35.4943 12.241 35.8885 14.0806 36.2826 15.9381C36.6588 17.7777 37.035 19.6353 37.3933 21.4748C37.7515 23.3144 38.0919 25.1539 38.3965 26.9935C38.701 28.833 38.9697 30.6906 39.0951 32.5482C39.2026 34.3878 39.0055 47.1745 38.7368 48.996C38.701 49.2304 38.6652 49.4468 38.6114 49.6813C38.5756 49.8617 38.289 49.8075 38.3248 49.6092C38.6293 47.7876 38.8981 35.001 38.8264 33.1614C38.7368 31.3218 38.5039 29.4823 38.2173 27.6608C37.9128 25.8212 37.5724 23.9817 37.232 22.1421C36.8917 20.3026 36.5334 18.445 36.1572 16.6054C35.978 15.6857 35.781 14.7659 35.6018 13.8641C35.4227 12.9444 35.2077 12.0426 35.0644 11.1048C35.0286 10.8704 34.9928 10.6539 34.939 10.4195C34.9032 10.3654 34.9928 10.3654 35.0107 10.4195Z" fill="url(#paint5_linear_4_470)" stroke="url(#paint6_linear_4_470)" stroke-width="1.5"/>
<path d="M32.3915 17.0757C32.7677 17.256 33.126 17.5265 33.4843 17.779C33.8426 18.0315 34.183 18.302 34.5233 18.5725C35.2041 19.1316 35.8311 19.7268 36.4043 20.376C36.6731 20.6646 36.9239 20.9712 37.1747 21.2778C37.6583 19.853 38.3033 18.4824 39.1094 17.2199C39.3602 16.8412 39.611 16.4805 39.9155 16.1559C39.9693 16.1018 40.0589 16.1739 40.023 16.228C39.6289 16.9133 39.199 17.5626 38.8228 18.2479C38.4466 18.9332 38.1241 19.6546 37.8196 20.376C37.6583 20.7908 37.4971 21.2056 37.3717 21.6385C37.3359 21.7647 37.1747 21.8008 37.0851 21.6926C36.0461 20.3219 34.8279 19.1136 33.4485 18.0856C33.2514 17.9413 33.0723 17.8151 32.8752 17.6708C32.6782 17.5265 32.4632 17.4183 32.2661 17.256C32.1766 17.1839 32.2841 17.0396 32.3915 17.0757Z" stroke="url(#paint7_linear_4_470)"/>
<path d="M31.8569 24.83C32.878 25.0464 33.8812 25.4432 34.8127 25.9301C35.7443 26.4171 36.6042 26.9942 37.3924 27.6795C37.8044 28.0222 38.1806 28.4009 38.5389 28.7977C39.6138 27.1926 40.7961 25.6596 42.1218 24.289C42.3188 24.0906 42.5159 23.8922 42.7129 23.7119C42.8204 23.6217 42.91 23.5135 43.0175 23.4233C43.125 23.3331 43.2324 23.261 43.3399 23.1708C43.3758 23.1528 43.4116 23.1888 43.3937 23.2249C43.322 23.3151 43.2504 23.4233 43.1787 23.5135C43.0891 23.6036 42.9996 23.7119 42.91 23.802C42.7488 23.9824 42.5875 24.1627 42.4263 24.3431C42.1038 24.7038 41.7635 25.0825 41.4589 25.4432C40.8319 26.1826 40.2228 26.9401 39.6496 27.7156C39.3271 28.1665 39.0047 28.6173 38.7001 29.0862C38.6464 29.1584 38.521 29.2125 38.4493 29.1223C37.0699 27.5893 35.3502 26.381 33.4513 25.5875C32.9138 25.3711 32.3585 25.1907 31.8031 25.0284C31.6777 25.0104 31.7136 24.7939 31.8569 24.83Z" stroke="url(#paint8_linear_4_470)"/>
<path d="M34.5439 32.5315C35.2426 32.7119 35.9233 33.0726 36.5503 33.4693C37.1773 33.8661 37.7685 34.335 38.3059 34.858C38.5388 35.0925 38.7717 35.363 38.9866 35.6335C39.6853 34.1727 40.6885 32.8381 41.8888 31.756C42.0679 31.5937 42.247 31.4494 42.4262 31.3052C42.6232 31.1428 42.8203 31.0346 43.0353 30.8903C43.0711 30.8723 43.1069 30.9264 43.0711 30.9445C42.892 31.0707 42.7486 31.233 42.5695 31.3773C42.4083 31.5035 42.265 31.6478 42.1216 31.7921C41.8171 32.0806 41.5305 32.3692 41.2618 32.6938C40.7243 33.3251 40.2227 33.9923 39.8107 34.7137C39.5778 35.1285 39.3628 35.5433 39.1658 35.9762C39.112 36.0844 38.9866 36.0663 38.915 35.9942C38.0372 34.858 36.9086 33.9022 35.6367 33.2529C35.2784 33.0726 34.8843 32.9283 34.5081 32.766C34.3468 32.6938 34.4185 32.4954 34.5439 32.5315Z" stroke="url(#paint9_linear_4_470)"/>
<path d="M36.2299 47.6064C37.7705 46.6325 38.9349 48.3819 40.2964 48.7787C41.7475 49.0492 43.091 48.5082 44.4883 48.3098C45.3124 48.2016 46.0469 48.8328 46.0469 49.6624V57.3452C46.0469 58.6257 45.0078 59.6717 43.7359 59.6717H24.281C23.0091 59.6717 21.9701 58.6257 21.9701 57.3452V49.0672C21.9701 48.3098 22.5792 47.7146 23.3316 47.6966C24.7468 47.6786 26.1979 47.0473 27.7385 47.2277C30.4256 47.6064 33.5248 49.1574 36.2299 47.6064Z" fill="url(#paint10_linear_4_470)"/>
<path opacity="0.34" d="M20.9136 30.7338H47.0864C47.588 30.7338 48 30.319 48 29.8141V29.6698C48 29.1648 47.588 28.75 47.0864 28.75H20.9136C20.412 28.75 20 29.1648 20 29.6698V29.8141C20 30.319 20.3941 30.7338 20.9136 30.7338Z" fill="url(#paint11_linear_4_470)"/>
<path opacity="0.34" d="M23.0445 60.25H44.9375C46.1406 60.25 47.125 59.5482 47.125 58.6904V30.5H20.8753V58.6904C20.857 59.5482 21.8414 60.25 23.0445 60.25Z" fill="url(#paint12_linear_4_470)"/>
<path opacity="0.42" d="M21.0941 30.7324H46.8906V32.1391H21.0941V30.7324Z" fill="url(#paint13_linear_4_470)"/>
</g>
<defs>
<linearGradient id="paint0_linear_4_470" x1="9.08335" y1="14" x2="9.08335" y2="26.5" gradientUnits="userSpaceOnUse">
<stop stop-color="#256ED0"/>
<stop offset="1" stop-color="#006CFF"/>
</linearGradient>
<linearGradient id="paint1_linear_4_470" x1="9.08335" y1="1.5" x2="9.08335" y2="14" gradientUnits="userSpaceOnUse">
<stop stop-color="#256ED0"/>
<stop offset="1" stop-color="#006CFF"/>
</linearGradient>
<linearGradient id="paint2_linear_4_470" x1="19.9154" y1="7.33301" x2="19.9154" y2="20.6663" gradientUnits="userSpaceOnUse">
<stop stop-color="#256ED0"/>
<stop offset="1" stop-color="#006CFF"/>
</linearGradient>
<linearGradient id="paint3_linear_4_470" x1="40.3555" y1="10.8738" x2="40.3555" y2="35.8687" gradientUnits="userSpaceOnUse">
<stop stop-color="#256ED0"/>
<stop offset="1" stop-color="#006CFF"/>
</linearGradient>
<linearGradient id="paint4_linear_4_470" x1="33.7195" y1="10.8101" x2="33.7195" y2="36.0886" gradientUnits="userSpaceOnUse">
<stop stop-color="#256ED0"/>
<stop offset="1" stop-color="#006CFF"/>
</linearGradient>
<linearGradient id="paint5_linear_4_470" x1="37.0278" y1="10.3789" x2="37.0278" y2="49.7912" gradientUnits="userSpaceOnUse">
<stop stop-color="#256ED0"/>
<stop offset="1" stop-color="#006CFF"/>
</linearGradient>
<linearGradient id="paint6_linear_4_470" x1="37.0278" y1="10.3789" x2="37.0278" y2="49.7912" gradientUnits="userSpaceOnUse">
<stop stop-color="#256ED0"/>
<stop offset="1" stop-color="#006CFF"/>
</linearGradient>
<linearGradient id="paint7_linear_4_470" x1="36.132" y1="16.1367" x2="36.132" y2="21.7566" gradientUnits="userSpaceOnUse">
<stop stop-color="#256ED0"/>
<stop offset="1" stop-color="#006CFF"/>
</linearGradient>
<linearGradient id="paint8_linear_4_470" x1="37.5625" y1="23.166" x2="37.5625" y2="29.1696" gradientUnits="userSpaceOnUse">
<stop stop-color="#256ED0"/>
<stop offset="1" stop-color="#006CFF"/>
</linearGradient>
<linearGradient id="paint9_linear_4_470" x1="38.7504" y1="30.8867" x2="38.7504" y2="36.0528" gradientUnits="userSpaceOnUse">
<stop stop-color="#256ED0"/>
<stop offset="1" stop-color="#006CFF"/>
</linearGradient>
<linearGradient id="paint10_linear_4_470" x1="34.0085" y1="47.1953" x2="34.0085" y2="59.6717" gradientUnits="userSpaceOnUse">
<stop stop-color="#256ED0"/>
<stop offset="1" stop-color="#006CFF"/>
</linearGradient>
<linearGradient id="paint11_linear_4_470" x1="34" y1="28.75" x2="34" y2="30.7338" gradientUnits="userSpaceOnUse">
<stop stop-color="#256ED0"/>
<stop offset="1" stop-color="#006CFF"/>
</linearGradient>
<linearGradient id="paint12_linear_4_470" x1="34" y1="30.5" x2="34" y2="60.25" gradientUnits="userSpaceOnUse">
<stop stop-color="#256ED0"/>
<stop offset="1" stop-color="#006CFF"/>
</linearGradient>
<linearGradient id="paint13_linear_4_470" x1="33.9923" y1="30.7324" x2="33.9923" y2="32.1391" gradientUnits="userSpaceOnUse">
<stop stop-color="#256ED0"/>
<stop offset="1" stop-color="#006CFF"/>
</linearGradient>
<clipPath id="clip0_4_470">
<rect width="48" height="60" fill="white" transform="translate(0 0.5)"/>
</clipPath>
</defs>
</svg>
