<svg width="70" height="71" viewBox="0 0 70 71" fill="none" xmlns="http://www.w3.org/2000/svg">
<g clip-path="url(#clip0_4_487)">
<path d="M4.33927e-05 35.4314C0.0301614 16.1408 15.7988 0.449299 35.1026 0.500123C54.3687 0.550947 70.032 16.2914 70 35.5669C69.9661 54.8612 54.1899 70.5603 34.8974 70.4981C15.6219 70.4379 -0.0300746 54.7088 4.33927e-05 35.4314ZM59.6187 57.0316C63.0879 53.0824 65.4427 48.5515 66.7641 43.4032H65.9397C62.3424 43.4032 58.7452 43.4013 55.148 43.4032C49.3879 43.407 43.6279 43.4145 37.8678 43.4202C34.6019 43.4202 31.3378 43.4221 28.0719 43.4239C27.9307 43.4164 27.7914 43.4032 27.6503 43.4032C19.7725 43.4032 11.8967 43.4108 4.01892 43.3863C3.33561 43.3844 3.22832 43.5256 3.42032 44.1731C6.32483 53.9746 12.4087 61.043 21.6549 65.3781C23.4356 66.2139 25.2879 66.8934 27.2399 67.2473C29.591 67.9231 31.9967 68.1809 34.4343 68.2054C39.9384 68.3315 45.1281 67.0967 50.011 64.5743C52.7536 63.1569 55.276 61.4232 57.4615 59.2265C58.2652 58.5752 58.941 57.7996 59.6205 57.0279L59.6187 57.0316ZM27.0968 26.6143C28.4183 25.7334 29.6173 24.9145 30.839 24.1296C31.3887 23.7776 31.6296 23.3333 31.6221 22.6726C31.5976 20.3441 31.6127 18.0156 31.6127 15.6871C31.6127 14.0306 31.6127 14.057 33.2899 14.0325C33.815 14.025 33.8847 14.2057 33.8809 14.6688C33.8583 17.3493 33.8546 20.0317 33.8772 22.7122C33.8885 24.1258 33.335 25.195 32.1473 25.9687C30.5943 26.9814 29.0677 28.0355 27.5128 29.0463C27.1985 29.2496 27.0855 29.4567 27.0855 29.8332C27.1025 33.4304 27.1006 37.0295 27.0874 40.6286C27.0874 40.9976 27.1364 41.1557 27.5693 41.1557C34.0372 41.1406 40.5031 41.1406 46.971 41.1557C47.3681 41.1557 47.4321 41.0145 47.4227 40.6719C47.402 39.8719 47.3832 39.0719 47.4284 38.2738C47.4547 37.8032 47.274 37.7392 46.8693 37.7505C45.93 37.7787 44.9888 37.7712 44.0476 37.7561C39.8914 37.6865 37.2127 33.5076 38.9257 29.7184C39.2043 29.1009 39.0951 28.7866 38.6584 28.3047C36.0438 25.4265 35.3548 22.0929 36.8664 18.5163C38.3892 14.9172 41.2674 13.0537 45.1846 12.9332C47.4171 12.8654 49.6534 12.8711 51.8859 12.9332C55.7786 13.0405 58.6492 14.889 60.189 18.4392C61.7457 22.027 61.0737 25.3927 58.4403 28.2934C57.9735 28.8073 57.9019 29.1386 58.188 29.7729C59.709 33.1575 57.6798 36.9712 54.0336 37.6507C52.7743 37.886 51.5 37.741 50.2331 37.7467C49.7606 37.7486 49.6439 37.8841 49.6646 38.334C49.7004 39.1076 49.6985 39.887 49.6646 40.6606C49.6458 41.0747 49.7927 41.1726 50.1785 41.1557C50.8129 41.1256 51.4473 41.1481 52.0835 41.1481C56.9287 41.1481 61.7721 41.1481 66.6173 41.1463C66.9223 41.1463 67.2404 41.263 67.3232 40.7321C67.9275 36.8601 67.8898 32.9993 67.1162 29.1593C64.2756 15.0189 52.6783 4.4117 38.3459 2.93592C30.4606 2.12461 23.0817 3.85452 16.6365 8.46069C5.65658 16.3083 0.990173 27.0623 2.65231 40.51C2.71631 41.022 2.85937 41.1576 3.37326 41.1576C10.3343 41.1387 17.2953 41.1406 24.2563 41.1538C24.6874 41.1538 24.8587 41.0879 24.8512 40.5947C24.8192 38.5486 24.8211 36.5024 24.8512 34.4563C24.8568 34.0196 24.6799 33.8426 24.3297 33.6713C22.6657 32.8582 21.0262 31.996 19.3546 31.1998C16.9038 30.0327 15.6539 28.1127 15.8346 25.4115C15.9231 24.1032 15.5146 23.3296 14.3663 22.6839C12.8096 21.8105 12.8717 21.7296 13.9183 20.2538C14.1405 19.9394 14.2929 19.9319 14.5753 20.1408C14.9442 20.4138 15.3395 20.6528 15.8064 20.9615C15.8064 20.6415 15.8064 20.4364 15.8064 20.2312C15.8101 18.5578 15.8101 18.5785 17.461 18.5559C17.9504 18.5483 18.0859 18.665 18.0784 19.1658C18.0483 21.4001 18.0596 23.6345 18.0671 25.8689C18.0727 27.1376 18.5734 28.1899 19.6916 28.8035C21.3499 29.7146 23.061 30.5278 24.8135 31.4144C24.8267 31.2468 24.838 31.1621 24.838 31.0774C24.838 26.3037 24.8342 21.53 24.8436 16.7544C24.8436 16.137 24.5839 15.738 24.0436 15.4725C22.6958 14.8118 21.3518 14.1473 20.0135 13.4659C18.8859 12.8918 18.2177 11.9732 18.0821 10.7064C17.956 9.53364 17.9711 9.53364 19.1495 9.53364C19.3377 9.53364 19.5297 9.55811 19.7123 9.52988C20.1923 9.45647 20.3956 9.60894 20.3297 10.1247C20.2412 10.825 20.5838 11.2617 21.2238 11.5459C21.9523 11.8678 22.6507 12.2556 23.3603 12.6189C23.5749 12.728 23.7613 12.7826 24.0097 12.649C24.8361 12.2066 25.6813 11.7981 26.5208 11.3784C26.8597 11.209 27.063 10.9624 27.0968 10.5633C27.1853 9.53176 27.1928 9.53364 28.2526 9.53364C28.5105 9.53364 28.7703 9.53364 29.0282 9.53364C29.1995 9.53364 29.3143 9.53364 29.3632 9.7727C29.6268 11.0941 28.9679 12.585 27.7632 13.2702C27.2267 13.5751 26.6677 13.8405 26.0766 14.1455C26.9293 15.0339 27.1194 16.0561 27.1081 17.1799C27.078 20.282 27.0968 23.3842 27.0968 26.6143ZM47.4171 25.2402C47.4171 24.4157 47.4171 23.7343 47.4171 23.051C47.4171 22.8176 47.4058 22.5992 47.6053 22.4072C48.3319 21.7051 49.0435 20.986 49.7569 20.2688C49.9037 20.1201 50.0242 20.0185 50.2143 20.2218C50.6473 20.6848 51.3042 21.0707 51.4661 21.6091C51.579 21.9893 50.8073 22.3677 50.4552 22.7705C50.348 22.8947 50.2369 23.0209 50.1051 23.1187C49.7512 23.3823 49.6609 23.7173 49.6665 24.1541C49.6929 25.8463 49.6741 27.5404 49.6816 29.2346C49.6816 29.4021 49.5762 29.6129 49.8077 29.7466C50.2011 29.4548 50.6002 29.1631 50.9917 28.8675C52.443 27.7701 52.4299 27.7795 53.467 29.2402C53.7118 29.5847 53.6327 29.7353 53.3296 29.948C52.6953 30.3941 52.1343 30.9701 51.4548 31.3184C49.9075 32.1109 49.3729 33.3231 49.6759 34.9796C49.6797 35.0022 49.6797 35.0267 49.6759 35.0492C49.6063 35.4351 49.7927 35.5161 50.1447 35.5067C51.0858 35.4841 52.027 35.5104 52.9663 35.4973C55.5603 35.4596 57.1716 32.9391 56.1099 30.5786C55.869 30.044 55.6073 29.5188 55.3193 29.0087C55.1179 28.6529 55.1122 28.4045 55.4511 28.1108C55.9461 27.6797 56.4073 27.2035 56.844 26.7122C58.7641 24.5399 59.2723 22.059 58.1429 19.3898C57.0022 16.6942 54.8525 15.2843 51.9254 15.1977C49.6703 15.1299 47.4077 15.1262 45.1526 15.1977C42.2293 15.2918 40.0796 16.7017 38.9445 19.4029C37.8207 22.0759 38.3327 24.555 40.2603 26.7235C40.697 27.2148 41.1657 27.6816 41.6514 28.124C41.9431 28.3875 42.0053 28.6021 41.7982 28.9579C41.482 29.5038 41.2034 30.0779 40.953 30.6577C39.9535 32.9617 41.5535 35.4483 44.0683 35.4973C45.0095 35.5161 45.9507 35.4747 46.89 35.5123C47.3343 35.5311 47.434 35.3975 47.4284 34.9683C47.4039 32.8525 47.4077 30.7348 47.4284 28.6191C47.4321 28.2407 47.2891 28.0261 47.0067 27.8077C45.8397 26.8986 44.6876 25.9668 43.5337 25.0388C42.1483 23.9244 42.1615 23.9319 43.321 22.5446C43.5695 22.2472 43.7013 22.2642 43.9761 22.4882C45.0792 23.3917 46.2011 24.2726 47.419 25.2421L47.4171 25.2402Z" fill="url(#paint0_linear_4_487)"/>
<path d="M27.2403 67.2507C25.2883 66.8968 23.4361 66.2154 21.6553 65.3815C12.411 61.0463 6.32715 53.978 3.42076 44.1765C3.22876 43.529 3.33606 43.3878 4.01936 43.3897C11.8971 43.4141 19.773 43.4047 27.6507 43.4066C27.7919 43.4066 27.9312 43.4198 28.0724 43.4273C28.8197 46.0306 26.7528 48.1295 24.2944 47.945C22.6116 47.8189 20.9099 47.9093 19.2177 47.9281C18.5682 47.9356 18.1259 48.3629 18.0732 48.9502C18.0242 49.5074 18.3932 50.0307 18.9504 50.1493C19.1537 50.1926 19.372 50.1794 19.5828 50.1794C22.781 50.1794 25.9792 50.1832 29.1773 50.1794C29.8192 50.1794 30.4441 50.2641 31.0352 50.5145C33.0437 51.3653 34.1995 53.4434 33.7948 55.4576C33.3317 57.7503 31.5905 59.2035 29.2658 59.211C26.9618 59.2204 24.6558 59.2129 22.3518 59.2129C22.0695 59.2129 21.7871 59.2035 21.5047 59.2167C20.7894 59.2506 20.3207 59.7099 20.3283 60.3555C20.3358 61.0012 20.8045 61.4379 21.5311 61.4699C21.6478 61.4755 21.7664 61.4699 21.8831 61.4699C22.7302 61.4699 23.5772 61.4981 24.4224 61.4642C25.9867 61.4021 27.1952 62.0026 27.8879 63.4106C28.5749 64.8092 28.2399 66.1043 27.2422 67.2544L27.2403 67.2507Z" fill="url(#paint1_linear_4_487)"/>
<path d="M59.6178 57.0316C59.3505 56.8998 59.0644 56.9525 58.7858 56.9525C55.9905 56.9488 53.1952 56.9525 50.3979 56.9488C48.3123 56.9469 46.7461 55.488 46.748 53.5605C46.7499 51.6292 48.3123 50.1816 50.3998 50.176C51.0097 50.176 51.6215 50.1835 52.2314 50.1741C53.0427 50.1609 53.4907 49.7675 53.5057 49.0785C53.5208 48.3463 53.0709 47.9228 52.2257 47.9209C48.5852 47.9134 44.9428 47.9209 41.3023 47.9171C39.3296 47.9152 37.9536 46.6992 37.7484 44.7453C37.7032 44.3124 37.8218 43.8625 37.8651 43.4201C43.6252 43.4145 49.3852 43.4069 55.1453 43.4032C58.7425 43.4013 62.3397 43.4032 65.937 43.4032H66.7614C65.44 48.5515 63.0833 53.0824 59.6159 57.0316H59.6178Z" fill="url(#paint2_linear_4_487)"/>
<path d="M34.4362 68.2087C33.6945 66.6651 33.6343 65.1347 34.5472 63.6383C35.4131 62.2208 36.712 61.5168 38.3534 61.4754C39.7633 61.4396 41.1751 61.4585 42.5869 61.4754C42.9276 61.4792 43.1158 61.3926 43.2965 61.065C43.9723 59.8302 45.034 59.2034 46.4608 59.209C50.1296 59.2222 53.7964 59.226 57.4652 59.2316C55.2779 61.4283 52.7555 63.162 50.0147 64.5794C45.1318 67.1018 39.9421 68.3367 34.4381 68.2105L34.4362 68.2087Z" fill="url(#paint3_linear_4_487)"/>
</g>
<defs>
<linearGradient id="paint0_linear_4_487" x1="35" y1="0.5" x2="35" y2="70.4983" gradientUnits="userSpaceOnUse">
<stop stop-color="#2AB973"/>
<stop offset="1" stop-color="#00FF81"/>
</linearGradient>
<linearGradient id="paint1_linear_4_487" x1="18.6055" y1="43.3897" x2="18.6055" y2="67.2544" gradientUnits="userSpaceOnUse">
<stop stop-color="#2AB973"/>
<stop offset="1" stop-color="#00FF81"/>
</linearGradient>
<linearGradient id="paint2_linear_4_487" x1="52.2499" y1="43.4023" x2="52.2499" y2="57.0316" gradientUnits="userSpaceOnUse">
<stop stop-color="#2AB973"/>
<stop offset="1" stop-color="#00FF81"/>
</linearGradient>
<linearGradient id="paint3_linear_4_487" x1="45.6681" y1="59.209" x2="45.6681" y2="68.2193" gradientUnits="userSpaceOnUse">
<stop stop-color="#2AB973"/>
<stop offset="1" stop-color="#00FF81"/>
</linearGradient>
<clipPath id="clip0_4_487">
<rect width="70" height="70" fill="white" transform="translate(0 0.5)"/>
</clipPath>
</defs>
</svg>
