<svg width="67" height="77" viewBox="0 0 67 77" fill="none" xmlns="http://www.w3.org/2000/svg">
<g clip-path="url(#clip0_4_497)">
<path d="M62.5748 58.8475C63.9061 58.8475 64.9798 58.8475 66.3971 58.8475C58.9242 69.4491 49.0892 75.5257 36.4197 76.3876C21.3022 77.4219 9.44874 71.3453 0.601562 59.1923C0.644511 59.063 0.644511 58.9768 0.687458 58.8475C1.20283 58.8475 1.7182 58.8475 2.23357 58.8475C2.74894 58.8475 3.22136 58.8475 3.86557 58.8475C3.90852 58.4166 3.95146 58.0287 3.95146 57.6409C3.95146 55.7446 3.99441 53.8484 3.95146 51.9522C3.95146 51.2627 4.1662 51.0041 4.85336 50.9179C6.01294 50.8317 7.12958 50.6162 8.24621 50.53C9.14811 50.4869 9.49169 50.1853 9.44874 49.2372C9.36284 47.9443 9.44874 46.6514 9.40579 45.3585C9.36284 44.669 9.62053 44.3673 10.3077 44.1949C12.3262 43.6778 14.3018 43.0744 16.3203 42.5573C17.0504 42.3849 17.3511 42.0401 17.2652 41.3075C17.2222 41.1351 17.2652 40.9627 17.2652 40.7904C17.2652 38.5494 17.2652 38.5063 19.4984 38.0753C21.9035 37.6013 24.3086 37.6875 26.7995 38.2477C26.7995 40.7904 26.7995 43.2899 26.7995 46.005C27.7014 45.8326 28.4745 45.7895 29.2046 45.5309C29.4623 45.4447 29.634 44.8845 29.677 44.4966C29.8488 38.8941 29.9776 33.2917 30.1065 27.6892C30.1924 24.5863 30.2353 21.4403 30.3212 18.3374C30.3212 17.9495 30.3642 17.5617 30.4071 17.1307C31.2231 17.1307 31.9532 17.1307 32.8122 17.1307C33.1557 26.3101 33.4993 35.4465 33.8 44.7552C35.0454 44.5397 36.205 44.3673 37.3646 44.1518C37.5364 44.1087 37.7511 43.7209 37.7511 43.5054C37.6652 42.6435 38.1376 42.428 38.8678 42.2556C39.8126 42.0401 41.0151 41.9539 41.5305 41.3075C42.0029 40.7473 41.7452 39.5406 41.7882 38.5925C42.0029 30.5766 42.1747 22.6039 42.3894 14.588C42.3894 14.2002 42.5183 13.4676 42.6471 13.4676C43.2913 13.3383 43.9785 13.3814 44.6657 13.4676C44.7945 13.4676 44.8804 14.0709 44.9233 14.4157C45.181 20.6215 45.3958 26.8273 45.6105 33.0331C45.6964 35.0586 45.7393 37.041 45.8252 39.0665C45.8252 39.4544 45.8682 39.8422 45.9111 40.3594C46.6842 40.187 47.3284 39.9715 47.9726 39.8422C49.7764 39.4544 51.5802 38.9803 53.4269 38.7218C54.4577 38.5925 54.6724 38.1615 54.6724 37.2134C54.8442 28.8959 55.0589 20.5784 55.2737 12.2178C55.2737 11.3559 55.2737 10.4939 55.2737 9.54583C55.9179 9.50273 56.3903 9.50273 56.9057 9.45963C57.5928 9.41654 57.8505 9.67511 57.8935 10.4077C57.9364 12.6918 58.0653 15.019 58.1512 17.3031C58.4088 24.0691 58.6665 30.7921 58.8383 37.5582C58.8813 38.5063 59.139 38.851 60.0838 38.7648C60.8998 38.6787 61.7158 38.7648 62.6606 38.7648C62.5748 45.3585 62.5748 52.0384 62.5748 58.8475ZM52.7398 58.8044C55.5314 58.8044 58.1941 58.8044 60.8998 58.7613C61.1145 58.7613 61.5011 58.2873 61.5011 58.0287C61.544 52.1677 61.544 46.3497 61.544 40.4887C61.544 39.8853 61.3293 39.6699 60.728 39.6699C59.6114 39.713 58.4947 39.6699 57.4211 39.6699C55.8749 39.6699 54.3718 39.6699 52.7827 39.6699C52.7398 46.1342 52.7398 52.3832 52.7398 58.8044ZM22.3759 38.7218C22.29 38.9372 22.2471 39.1096 22.2471 39.2389C22.2471 42.9021 22.2471 46.5652 22.2041 50.1853C22.2041 51.0903 22.8483 51.0041 23.2778 50.8748C24.0509 50.6162 25.554 51.7367 25.597 50.1422C25.7688 46.6945 25.6399 43.2037 25.6399 39.713C25.6399 39.4544 25.3393 39.0234 25.1246 38.9803C24.2656 38.8079 23.3208 38.8079 22.3759 38.7218ZM31.9962 58.8044C32.2968 58.8044 32.6833 58.8044 33.0698 58.8044C36.1621 58.8044 39.2113 58.8044 42.3035 58.8044C44.4509 58.8044 44.4509 58.8044 44.2362 56.6496C44.2362 56.5635 44.1503 56.4342 44.0644 56.2187C43.7208 56.2187 43.3343 56.2187 42.9478 56.2187C39.8555 56.2187 36.8063 56.2187 33.7141 56.2187C31.5667 56.2187 31.5237 56.2618 31.8244 58.4597C31.8244 58.589 31.9103 58.6321 31.9962 58.8044ZM34.6589 55.1844C35.9473 55.1844 37.1499 55.2275 38.3953 55.1413C38.6101 55.1413 38.9966 54.6672 38.9966 54.4087C39.0395 52.9003 39.0395 51.3919 38.9966 49.8836C38.9966 49.625 38.6101 49.1941 38.3524 49.151C37.1499 49.0648 35.9473 49.1079 34.6589 49.1079C34.6589 51.1765 34.6589 53.1158 34.6589 55.1844ZM22.2471 55.3999C22.2471 56.3049 22.2471 57.2099 22.2471 58.0718C22.2471 58.6321 22.4618 58.9337 23.0201 58.8044C23.922 58.6321 24.9957 59.3647 25.7258 58.2873C25.7688 58.2442 25.7258 58.158 25.7258 58.0718C25.7258 56.2618 25.7258 54.4087 25.7258 52.5986C25.7258 51.5643 24.8669 51.8229 24.3945 51.9091C23.6644 52.0815 22.5907 51.1765 22.29 52.5555C22.2471 52.7279 22.29 52.9003 22.29 53.0727C22.2471 53.8915 22.2471 54.6241 22.2471 55.3999ZM18.253 58.8044C19.1549 58.8044 19.885 58.8475 20.5721 58.7613C20.7869 58.7613 21.0875 58.4597 21.1304 58.2873C21.1734 56.2187 21.1734 54.1501 21.1734 51.9953C20.3144 52.0384 19.5843 52.0384 18.8972 52.1677C18.6824 52.2108 18.2959 52.5555 18.2959 52.7279C18.21 54.7103 18.253 56.6927 18.253 58.8044ZM44.9233 48.7631C45.0092 48.8493 45.1381 48.9786 45.224 49.0648C45.7823 48.72 46.813 48.4183 46.856 47.9874C47.0707 46.4359 46.9419 44.7983 46.9419 43.2037C45.4817 43.2037 44.9233 43.4192 44.9233 44.0656C44.8804 45.6171 44.9233 47.1685 44.9233 48.7631ZM50.6783 41.9539C49.8623 42.3418 48.7886 42.6004 48.7457 42.9451C48.5739 44.5828 48.6598 46.2635 48.6598 47.9012C48.7886 47.9874 48.9175 48.0736 49.0034 48.1598C49.5617 47.7719 50.5065 47.4271 50.5495 46.9962C50.8071 45.4447 50.6783 43.8933 50.6783 41.9539ZM43.1196 43.7209C42.2606 44.238 41.2728 44.5397 41.2299 44.9276C41.0151 46.479 41.144 48.1167 41.144 49.7112C41.2299 49.7974 41.3158 49.8836 41.4017 49.9698C41.96 49.625 42.9907 49.3233 43.0337 48.8924C43.2484 47.3409 43.1196 45.7464 43.1196 43.7209ZM15.4184 44.238C14.5595 44.4104 14.3877 45.2292 14.8601 46.6514C15.6761 46.3928 15.805 45.7895 15.4184 44.238ZM13.7005 44.669C12.8416 44.7983 12.7127 45.2723 13.0563 47.0393C13.9582 46.8669 14.0871 46.3497 13.7005 44.669ZM11.3814 47.4271C12.2403 47.2547 12.4551 46.2635 11.8967 45.0138C11.1237 45.3154 10.9948 45.9188 11.3814 47.4271Z" fill="url(#paint0_linear_4_497)"/>
<path d="M43.4207 12.1742C41.531 11.4415 39.5124 10.8813 37.7087 9.97629C36.0767 9.11437 36.0337 7.30434 37.1074 6.09766C37.3221 6.91648 37.3651 8.03697 37.9234 8.72651C38.5247 9.45914 39.5983 9.847 40.5002 10.278C41.1874 10.6227 41.9605 10.7951 42.6906 11.1399C43.0341 11.2692 43.2918 11.6139 43.5925 11.8294C43.5495 11.9156 43.4636 12.0449 43.4207 12.1742Z" fill="url(#paint1_linear_4_497)"/>
<path d="M54.5036 9.32996C52.614 8.59733 50.5954 8.03708 48.7916 7.08897C47.2455 6.31325 47.1596 4.41703 48.448 3.08105C47.9756 5.88229 49.6506 6.87349 51.7979 7.51993C52.5281 7.73541 53.2152 7.99399 53.9024 8.33875C54.203 8.46804 54.4177 8.76972 54.7184 8.9852C54.6325 9.07139 54.5895 9.20067 54.5036 9.32996Z" fill="url(#paint2_linear_4_497)"/>
<path d="M55.2742 8.25238C53.9429 7.26118 52.6544 6.39926 51.4949 5.36496C50.1205 4.20137 50.1205 2.7792 51.409 1.48633C51.0224 3.64112 52.225 4.84781 53.6852 5.9683C54.3723 6.52855 55.3601 7.0026 55.2742 8.25238Z" fill="url(#paint3_linear_4_497)"/>
<path d="M39.5125 3.68457C39.2978 5.88246 40.5003 7.08915 41.9176 8.16654C42.6477 8.72679 43.6355 9.24394 43.4637 10.4075C42.2611 9.50252 41.0157 8.6406 39.8561 7.69249C38.5247 6.61509 38.31 5.36531 39.083 4.11553C39.126 3.98624 39.2119 3.94315 39.5125 3.68457Z" fill="url(#paint4_linear_4_497)"/>
<path d="M31.3088 15.7505C29.6768 15.1472 28.0018 14.6731 26.4128 13.9405C24.7808 13.1648 24.609 11.5271 25.6397 10.2773C25.8544 11.0531 25.8974 12.0874 26.4557 12.7338C27.014 13.3802 28.0018 13.6819 28.8178 14.0698C29.7197 14.5007 30.6646 14.8455 31.5665 15.2334C31.4806 15.4489 31.3947 15.6212 31.3088 15.7505Z" fill="url(#paint5_linear_4_497)"/>
<path d="M31.395 14.1567C30.2784 13.3379 29.1618 12.5622 28.0881 11.7003C26.8426 10.666 26.7138 9.54547 27.8733 8.03711C27.5727 10.5367 29.2477 11.4848 30.622 12.6915C31.0515 13.0362 31.2662 13.5965 31.6098 14.0705C31.5239 14.0705 31.438 14.1136 31.395 14.1567Z" fill="url(#paint6_linear_4_497)"/>
<path d="M56.3077 47.3403C55.7494 47.3403 55.2341 47.3403 54.5898 47.3403C54.5898 45.7027 54.5898 44.065 54.5898 42.2981C55.1052 42.255 55.6635 42.255 56.3077 42.2119C56.3077 43.9788 56.3077 45.6165 56.3077 47.3403Z" fill="url(#paint7_linear_4_497)"/>
<path d="M58.105 47.2975C58.105 45.7892 58.0621 44.3239 58.105 42.8586C58.105 42.1691 58.3627 42.126 59.8659 42.3415C59.8659 43.936 59.8659 45.5737 59.8659 47.2975C59.3505 47.2975 58.7922 47.2975 58.105 47.2975Z" fill="url(#paint8_linear_4_497)"/>
</g>
<defs>
<linearGradient id="paint0_linear_4_497" x1="33.4993" y1="9.45508" x2="33.4993" y2="76.5008" gradientUnits="userSpaceOnUse">
<stop stop-color="#386FDF"/>
<stop offset="1" stop-color="#6B9CFF"/>
</linearGradient>
<linearGradient id="paint1_linear_4_497" x1="39.9857" y1="6.09766" x2="39.9857" y2="12.1742" gradientUnits="userSpaceOnUse">
<stop stop-color="#386FDF"/>
<stop offset="1" stop-color="#6B9CFF"/>
</linearGradient>
<linearGradient id="paint2_linear_4_497" x1="51.1346" y1="3.08105" x2="51.1346" y2="9.32996" gradientUnits="userSpaceOnUse">
<stop stop-color="#386FDF"/>
<stop offset="1" stop-color="#6B9CFF"/>
</linearGradient>
<linearGradient id="paint3_linear_4_497" x1="52.8663" y1="1.48633" x2="52.8663" y2="8.25238" gradientUnits="userSpaceOnUse">
<stop stop-color="#386FDF"/>
<stop offset="1" stop-color="#6B9CFF"/>
</linearGradient>
<linearGradient id="paint4_linear_4_497" x1="41.0601" y1="3.68457" x2="41.0601" y2="10.4075" gradientUnits="userSpaceOnUse">
<stop stop-color="#386FDF"/>
<stop offset="1" stop-color="#6B9CFF"/>
</linearGradient>
<linearGradient id="paint5_linear_4_497" x1="28.2813" y1="10.2773" x2="28.2813" y2="15.7505" gradientUnits="userSpaceOnUse">
<stop stop-color="#386FDF"/>
<stop offset="1" stop-color="#6B9CFF"/>
</linearGradient>
<linearGradient id="paint6_linear_4_497" x1="29.342" y1="8.03711" x2="29.342" y2="14.1567" gradientUnits="userSpaceOnUse">
<stop stop-color="#386FDF"/>
<stop offset="1" stop-color="#6B9CFF"/>
</linearGradient>
<linearGradient id="paint7_linear_4_497" x1="55.4488" y1="42.2119" x2="55.4488" y2="47.3403" gradientUnits="userSpaceOnUse">
<stop stop-color="#386FDF"/>
<stop offset="1" stop-color="#6B9CFF"/>
</linearGradient>
<linearGradient id="paint8_linear_4_497" x1="58.9759" y1="42.2266" x2="58.9759" y2="47.2975" gradientUnits="userSpaceOnUse">
<stop stop-color="#386FDF"/>
<stop offset="1" stop-color="#6B9CFF"/>
</linearGradient>
<clipPath id="clip0_4_497">
<rect width="67" height="76" fill="white" transform="translate(0 0.5)"/>
</clipPath>
</defs>
</svg>
