<svg width="62" height="63" viewBox="0 0 62 63" fill="none" xmlns="http://www.w3.org/2000/svg">
<g clip-path="url(#clip0_4_517)">
<path fill-rule="evenodd" clip-rule="evenodd" d="M52.19 22.63H22.65L23.14 25.07C32.27 25.69 38.99 29.67 42.29 33.54C43.4737 34.8913 44.3687 36.4703 44.92 38.18C45.2685 39.2353 45.3985 40.3504 45.3023 41.4576C45.206 42.5647 44.8854 43.6407 44.36 44.62C44.2267 44.8711 44.0798 45.1148 43.92 45.35C44.1102 45.7705 44.2673 46.2051 44.39 46.65C44.4326 46.7647 44.4693 46.8815 44.5 47C44.6573 47.536 44.7381 48.0914 44.74 48.65C44.7457 48.7466 44.7457 48.8434 44.74 48.94V49.07C44.74 49.21 44.74 49.36 44.74 49.5H52.18L58.31 22.64H52.21L52.19 22.63ZM3 54.59C14.6733 54.59 26.34 54.59 38 54.59C38.3369 54.5978 38.6574 54.7372 38.8928 54.9783C39.1283 55.2194 39.2601 55.543 39.26 55.88C39.26 57.79 38.47 61.55 34.2 61.55H6.81C2.54 61.55 1.75 57.8 1.75 55.88C1.74728 55.5439 1.87684 55.2203 2.11072 54.9789C2.34459 54.7376 2.66401 54.5979 3 54.59ZM29.14 34.83C29.5379 34.8181 29.9303 34.9251 30.267 35.1375C30.6037 35.3499 30.8694 35.6579 31.03 36.0221C31.1906 36.3864 31.2389 36.7903 31.1686 37.1821C31.0983 37.5739 30.9127 37.9359 30.6356 38.2216C30.3584 38.5074 30.0023 38.7039 29.6128 38.786C29.2233 38.8682 28.8181 38.8323 28.4491 38.6828C28.0802 38.5333 27.7642 38.2772 27.5417 37.9471C27.3191 37.617 27.2002 37.2281 27.2 36.83C27.1998 36.3098 27.4022 35.81 27.7644 35.4366C28.1266 35.0632 28.62 34.8456 29.14 34.83ZM12.14 34.97C12.5379 34.9581 12.9303 35.0651 13.267 35.2775C13.6037 35.4899 13.8694 35.7979 14.03 36.1621C14.1906 36.5264 14.2389 36.9303 14.1686 37.3221C14.0983 37.7139 13.9127 38.0759 13.6356 38.3616C13.3584 38.6474 13.0023 38.8439 12.6128 38.926C12.2233 39.0082 11.8181 38.9723 11.4491 38.8228C11.0802 38.6733 10.7642 38.4172 10.5417 38.0871C10.3191 37.7571 10.2002 37.3681 10.2 36.97C10.2 36.4413 10.4093 35.9341 10.7822 35.5593C11.1552 35.1845 11.6613 34.9726 12.19 34.97H12.14ZM20.55 33.08C20.9456 33.08 21.3322 33.1973 21.6611 33.4171C21.99 33.6368 22.2464 33.9492 22.3978 34.3146C22.5491 34.6801 22.5887 35.0822 22.5116 35.4702C22.4344 35.8581 22.2439 36.2145 21.9642 36.4942C21.6845 36.7739 21.3281 36.9644 20.9402 37.0416C20.5522 37.1187 20.1501 37.0791 19.7846 36.9278C19.4192 36.7764 19.1068 36.52 18.8871 36.1911C18.6673 35.8622 18.55 35.4756 18.55 35.08C18.5499 34.8131 18.6033 34.5489 18.7069 34.3029C18.8105 34.0569 18.9623 33.8342 19.1533 33.6478C19.3444 33.4614 19.5708 33.3152 19.8193 33.2176C20.0677 33.1201 20.3332 33.0733 20.6 33.08H20.55ZM36.36 43.3H5.07C4.10452 43.2895 3.18232 42.8978 2.50428 42.2104C1.82624 41.523 1.4473 40.5955 1.45 39.63C1.45 34.4 11.72 30.63 20.33 30.51C37.28 30.33 44.89 43.3 36.36 43.3ZM39.2 48.3C39.2509 48.3919 39.2784 48.4949 39.28 48.6V49.03C39.2772 49.1349 39.2498 49.2376 39.2 49.33C38.91 50.6 37.76 52.27 34.2 52.27H6.81C3.27 52.27 2.12 50.6 1.81 49.33C1.75155 49.2408 1.72029 49.1366 1.72 49.03C1.72 48.96 1.72 48.89 1.72 48.81C1.71502 48.7401 1.71502 48.6699 1.72 48.6C1.72192 48.4936 1.75305 48.3899 1.81 48.3C2.09 47.03 3.24 45.36 6.81 45.36H21L26.23 50.85L31.44 45.36H34.22C37.76 45.4 38.91 47.07 39.2 48.34V48.3ZM44.72 49.03C44.72 49.46 44.72 49.19 44.72 49.03ZM22.72 11.57H38L39.68 4.03C40.19 2.25 41.6 1.23 44.08 0.5H50.39C50.8602 0.598846 51.2819 0.856658 51.5843 1.23004C51.8866 1.60341 52.0511 2.06956 52.05 2.55V4.55C51.9496 5.00291 51.7073 5.41198 51.3584 5.71772C51.0095 6.02346 50.5722 6.20992 50.11 6.25H44.84L43.73 11.6H58.24C58.8306 11.6079 59.3942 11.8488 59.8081 12.2701C60.222 12.6915 60.4527 13.2593 60.45 13.85V16.41C60.4526 16.7029 60.3976 16.9934 60.2879 17.2649C60.1783 17.5365 60.0162 17.7838 59.811 17.9927C59.6058 18.2017 59.3614 18.3681 59.0919 18.4826C58.8223 18.5971 58.5328 18.6574 58.24 18.66H22.69C22.0994 18.6521 21.5358 18.4112 21.1219 17.9899C20.708 17.5685 20.4773 17.0007 20.48 16.41V13.86C20.4799 13.2701 20.7115 12.7038 21.1248 12.283C21.5381 11.8622 22.1002 11.6205 22.69 11.61L22.72 11.57ZM43.72 61.01H47.88C48.6995 60.913 49.4723 60.5768 50.1019 60.0433C50.7315 59.5097 51.1899 58.8025 51.42 58.01L51.82 53.75H44.4C44.6254 54.4341 44.7402 55.1497 44.74 55.87C44.7358 57.6531 44.3647 59.4164 43.65 61.05L43.72 61.01Z" fill="url(#paint0_linear_4_517)"/>
</g>
<defs>
<linearGradient id="paint0_linear_4_517" x1="61.36" y1="25.2" x2="4.36" y2="45.95" gradientUnits="userSpaceOnUse">
<stop stop-color="#EFC3A2"/>
<stop offset="1" stop-color="#FFAB7B"/>
</linearGradient>
<clipPath id="clip0_4_517">
<rect width="62" height="62" fill="white" transform="translate(0 0.5)"/>
</clipPath>
</defs>
</svg>
