<svg width="140" height="92" viewBox="0 0 140 92" fill="none" xmlns="http://www.w3.org/2000/svg">
<g clip-path="url(#clip0_4_519)">
<path d="M106.839 90.6383C106.839 66.2269 90.1544 46.3672 69.652 46.3672C49.1497 46.3672 32.4648 66.2269 32.4648 90.6383H106.839Z" fill="url(#paint0_linear_4_519)"/>
<path d="M69.6513 46.3678C80.8971 46.3678 90.0135 36.0999 90.0135 23.4339C90.0135 10.7679 80.8971 0.5 69.6513 0.5C58.4056 0.5 49.2891 10.7679 49.2891 23.4339C49.2891 36.0999 58.4056 46.3678 69.6513 46.3678Z" fill="url(#paint1_linear_4_519)"/>
<path d="M57.542 51.473L67.2713 77.9783C68.0838 80.1981 71.2289 80.1981 72.0414 77.9783L81.7707 51.473C82.2541 50.1635 81.5956 48.6859 80.2788 48.2167C76.9096 47.0193 73.3513 46.375 69.6599 46.375C65.9685 46.375 62.4102 47.0193 59.041 48.2167C57.7241 48.6859 57.0657 50.1635 57.549 51.473H57.542Z" fill="white"/>
<path d="M69.1831 57.0896L65.0924 52.2437C64.8963 52.0126 64.8963 51.6765 65.0924 51.4454L69.1831 46.5995C69.4282 46.3054 69.8835 46.3054 70.1287 46.5995L74.2193 51.4454C74.4155 51.6765 74.4155 52.0126 74.2193 52.2437L70.1287 57.0896C69.8835 57.3837 69.4282 57.3837 69.1831 57.0896Z" fill="url(#paint2_linear_4_519)"/>
<path d="M68.9677 85.7018L64.5058 63.4402C64.4638 63.2301 64.5198 63.013 64.6599 62.845L69.1218 57.5509C69.402 57.2148 69.9204 57.2148 70.2005 57.5509L74.6624 62.845C74.8025 63.006 74.8586 63.2301 74.8165 63.4402L70.3546 85.7018C70.2005 86.4581 69.1218 86.4581 68.9677 85.7018Z" fill="url(#paint3_linear_4_519)"/>
<path d="M108.898 45.079C118.307 45.079 125.933 36.4885 125.933 25.8915C125.933 15.2946 118.307 6.7041 108.898 6.7041C99.4901 6.7041 91.8633 15.2946 91.8633 25.8915C91.8633 36.4885 99.4901 45.079 108.898 45.079Z" fill="url(#paint4_linear_4_519)"/>
<path d="M108.901 45.0791C102.078 45.0791 95.7672 47.7121 90.6328 52.1659C99.3745 58.8534 105.693 69.5886 107.696 82.1165H140.001C140.001 61.6965 126.048 45.0861 108.894 45.0861L108.901 45.0791Z" fill="url(#paint5_linear_4_519)"/>
<path d="M98.92 49.7497L106.52 70.4568C107.332 72.6766 110.477 72.6766 111.29 70.4568L118.89 49.7497C119.387 48.3982 118.666 46.9136 117.3 46.4585C114.631 45.5621 111.815 45.0859 108.908 45.0859C106.002 45.0859 103.186 45.5691 100.517 46.4585C99.1512 46.9136 98.4297 48.4052 98.927 49.7497H98.92Z" fill="white"/>
<path d="M108.5 54.0432L105.082 49.9886C104.921 49.7925 104.921 49.5124 105.082 49.3234L108.5 45.2688C108.71 45.0237 109.088 45.0237 109.292 45.2688L112.71 49.3234C112.871 49.5194 112.871 49.7995 112.71 49.9886L109.292 54.0432C109.081 54.2883 108.703 54.2883 108.5 54.0432Z" fill="url(#paint6_linear_4_519)"/>
<path d="M108.319 77.9847L104.585 59.3644C104.55 59.1894 104.599 59.0073 104.711 58.8672L108.445 54.4415C108.683 54.1614 109.11 54.1614 109.348 54.4415L113.082 58.8672C113.201 59.0073 113.243 59.1894 113.208 59.3644L109.475 77.9847C109.348 78.6149 108.445 78.6149 108.319 77.9847Z" fill="url(#paint7_linear_4_519)"/>
<path d="M31.1093 45.079C40.5175 45.079 48.1444 36.4885 48.1444 25.8915C48.1444 15.2946 40.5175 6.7041 31.1093 6.7041C21.7011 6.7041 14.0742 15.2946 14.0742 25.8915C14.0742 36.4885 21.7011 45.079 31.1093 45.079Z" fill="url(#paint8_linear_4_519)"/>
<path d="M49.0459 51.8857C43.9746 47.6071 37.7825 45.0791 31.1072 45.0791C13.9531 45.0791 0 61.6895 0 82.1095H31.6115C33.6429 69.4065 40.1151 58.5523 49.0459 51.8857Z" fill="url(#paint9_linear_4_519)"/>
<path d="M21.127 49.7497L28.727 70.4568C29.5395 72.6766 32.6845 72.6766 33.4971 70.4568L41.097 49.7497C41.5943 48.3982 40.8729 46.9136 39.507 46.4585C36.8382 45.5621 34.0224 45.0859 31.1155 45.0859C28.2086 45.0859 25.3928 45.5691 22.7241 46.4585C21.3582 46.9136 20.6367 48.4052 21.134 49.7497H21.127Z" fill="white"/>
<path d="M30.7148 54.0432L27.2966 49.9886C27.1355 49.7925 27.1355 49.5124 27.2966 49.3234L30.7148 45.2688C30.925 45.0237 31.3032 45.0237 31.5063 45.2688L34.9246 49.3234C35.0857 49.5194 35.0857 49.7995 34.9246 49.9886L31.5063 54.0432C31.2962 54.2883 30.9179 54.2883 30.7148 54.0432Z" fill="url(#paint10_linear_4_519)"/>
<path d="M30.5258 77.9847L26.7924 59.3644C26.7574 59.1894 26.8064 59.0073 26.9185 58.8672L30.6519 54.4415C30.89 54.1614 31.3173 54.1614 31.5555 54.4415L35.2889 58.8672C35.408 59.0073 35.45 59.1894 35.415 59.3644L31.6816 77.9847C31.5555 78.6149 30.6519 78.6149 30.5258 77.9847Z" fill="url(#paint11_linear_4_519)"/>
</g>
<defs>
<linearGradient id="paint0_linear_4_519" x1="69.6519" y1="46.3672" x2="69.6519" y2="90.6383" gradientUnits="userSpaceOnUse">
<stop stop-color="#82FFF7"/>
<stop offset="1" stop-color="#32E2E2"/>
</linearGradient>
<linearGradient id="paint1_linear_4_519" x1="69.6513" y1="0.5" x2="69.6513" y2="46.3678" gradientUnits="userSpaceOnUse">
<stop stop-color="#82FFF7"/>
<stop offset="1" stop-color="#32E2E2"/>
</linearGradient>
<linearGradient id="paint2_linear_4_519" x1="69.6559" y1="46.3789" x2="69.6559" y2="57.3102" gradientUnits="userSpaceOnUse">
<stop stop-color="#82FFF7"/>
<stop offset="1" stop-color="#32E2E2"/>
</linearGradient>
<linearGradient id="paint3_linear_4_519" x1="69.6612" y1="57.2988" x2="69.6612" y2="86.269" gradientUnits="userSpaceOnUse">
<stop stop-color="#82FFF7"/>
<stop offset="1" stop-color="#32E2E2"/>
</linearGradient>
<linearGradient id="paint4_linear_4_519" x1="108.898" y1="6.7041" x2="108.898" y2="45.079" gradientUnits="userSpaceOnUse">
<stop stop-color="#82FFF7"/>
<stop offset="1" stop-color="#32E2E2"/>
</linearGradient>
<linearGradient id="paint5_linear_4_519" x1="115.317" y1="45.0791" x2="115.317" y2="82.1165" gradientUnits="userSpaceOnUse">
<stop stop-color="#82FFF7"/>
<stop offset="1" stop-color="#32E2E2"/>
</linearGradient>
<linearGradient id="paint6_linear_4_519" x1="108.896" y1="45.085" x2="108.896" y2="54.227" gradientUnits="userSpaceOnUse">
<stop stop-color="#82FFF7"/>
<stop offset="1" stop-color="#32E2E2"/>
</linearGradient>
<linearGradient id="paint7_linear_4_519" x1="108.897" y1="54.2314" x2="108.897" y2="78.4573" gradientUnits="userSpaceOnUse">
<stop stop-color="#82FFF7"/>
<stop offset="1" stop-color="#32E2E2"/>
</linearGradient>
<linearGradient id="paint8_linear_4_519" x1="31.1093" y1="6.7041" x2="31.1093" y2="45.079" gradientUnits="userSpaceOnUse">
<stop stop-color="#82FFF7"/>
<stop offset="1" stop-color="#32E2E2"/>
</linearGradient>
<linearGradient id="paint9_linear_4_519" x1="24.5229" y1="45.0791" x2="24.5229" y2="82.1095" gradientUnits="userSpaceOnUse">
<stop stop-color="#82FFF7"/>
<stop offset="1" stop-color="#32E2E2"/>
</linearGradient>
<linearGradient id="paint10_linear_4_519" x1="31.1106" y1="45.085" x2="31.1106" y2="54.227" gradientUnits="userSpaceOnUse">
<stop stop-color="#82FFF7"/>
<stop offset="1" stop-color="#32E2E2"/>
</linearGradient>
<linearGradient id="paint11_linear_4_519" x1="31.1041" y1="54.2314" x2="31.1041" y2="78.4573" gradientUnits="userSpaceOnUse">
<stop stop-color="#82FFF7"/>
<stop offset="1" stop-color="#32E2E2"/>
</linearGradient>
<clipPath id="clip0_4_519">
<rect width="140" height="91" fill="white" transform="translate(0 0.5)"/>
</clipPath>
</defs>
</svg>
