<svg width="72" height="53" viewBox="0 0 72 53" fill="none" xmlns="http://www.w3.org/2000/svg">
<g clip-path="url(#clip0_4_535)">
<path fill-rule="evenodd" clip-rule="evenodd" d="M50.9 12.95C53.9306 13.7744 57.0926 14.0019 60.21 13.62C61 13.53 61.78 13.42 62.54 13.32C66.17 12.84 69.2 12.57 70.28 15.32C72.18 20.15 67.88 30.63 65.61 34.87C60.94 43.6 51.61 53.36 40.86 50.46C39.2221 50.0277 37.6814 49.2879 36.32 48.28C39.8498 46.1918 42.7756 43.2211 44.81 39.66C47.49 39.81 50.27 41.23 52.81 42.74C53 39.35 49.75 37.1 46.81 35.69C49.0307 30.4755 50.3592 24.9249 50.74 19.27C50.91 17.64 51 15.42 50.9 12.95ZM3.22 4.66C3.73495 4.24465 4.33083 3.9412 4.96961 3.76902C5.6084 3.59684 6.27606 3.55971 6.93 3.66C9.81068 3.99068 12.6513 4.60704 15.41 5.5C21.2279 7.12659 27.4393 6.57549 32.88 3.95L35.11 2.87C38.57 1.19 41.51 -0.129999 43.48 2.28C47 6.5 46.11 18.37 45.24 23.35C43.44 33.62 37.36 46.5 25.65 47.17C19.44 47.53 14.15 44.02 9.59 37.37C6.78471 33.0565 4.66614 28.3336 3.31 23.37C2.39 19.93 0.369999 7.39 3.22 4.66ZM9 20.38C7.93 20.1 7.31 19.75 7.1 19.38C6.28 17.72 13.1 13.55 17.9 17.38C24.75 22.7 11.45 21.11 9 20.38ZM20.08 36.5C18.3647 35.2862 17.18 33.461 16.77 31.4C22.77 34.45 28.37 34.23 33.59 30.03C33.4141 31.8265 32.7806 33.548 31.75 35.03C28.7 39.35 24.24 39.5 20.08 36.5ZM39.42 17.98C40.42 17.51 40.97 17.05 41.1 16.6C41.61 14.83 34.16 11.97 30.1 16.6C24.37 23.14 37.17 19.14 39.42 17.98ZM52.75 24.78C54.119 23.742 55.8076 23.2149 57.5239 23.2898C59.2403 23.3646 60.8766 24.0368 62.15 25.19C62.84 25.76 64.72 27.42 63.64 28.34C63.2009 28.6273 62.6846 28.7738 62.16 28.76C60.1098 28.8914 58.0568 28.5492 56.16 27.76C55.4143 27.5303 54.7254 27.1463 54.1379 26.6329C53.5504 26.1195 53.0775 25.4882 52.75 24.78Z" fill="url(#paint0_linear_4_535)"/>
</g>
<defs>
<linearGradient id="paint0_linear_4_535" x1="64.74" y1="7.57" x2="5.29" y2="38.46" gradientUnits="userSpaceOnUse">
<stop stop-color="#FF60CA"/>
<stop offset="1" stop-color="#FF18B4"/>
</linearGradient>
<clipPath id="clip0_4_535">
<rect width="72" height="52" fill="white" transform="translate(0 0.5)"/>
</clipPath>
</defs>
</svg>
