<svg width="93" height="54" viewBox="0 0 93 54" fill="none" xmlns="http://www.w3.org/2000/svg">
<g clip-path="url(#clip0_4_539)">
<path fill-rule="evenodd" clip-rule="evenodd" d="M27.68 28.65L27.29 30.5L28.58 35.77C28.5 37.13 28.85 38.59 28.34 39.85C27.6572 41.4861 27.5515 43.3058 28.04 45.01C27.28 46.15 27.46 47.3 25.87 48.43C23.81 49.13 22.79 50.2 23.02 51.71C24.59 52.42 26.92 52.53 29.83 52.18C32.74 51.83 34.41 50.59 31.21 48.18C32.89 47.87 33.48 46.18 33.48 43.8C33.7939 43.626 34.0614 43.379 34.26 43.08C34.4635 42.7812 34.5937 42.4386 34.64 42.08C34.75 39.44 35.35 37.95 36.33 37.43C35.9 41.67 37.93 42.61 37.62 45.43C37.5305 46.1727 37.2703 46.8845 36.86 47.51C33.36 48.35 34.98 50.74 37.69 51.51C39.49 52.03 44.41 51.73 42.36 49C42 48.56 42 47.8 41.2 47.27C41.7995 46.6305 42.2113 45.8382 42.39 44.98C43.53 40.66 40.94 38.05 43.24 34.29C47.9692 35.7313 52.9121 36.3436 57.85 36.1C65.36 35.45 67.41 32.84 72.27 27.97C73.0112 30.3811 74.3095 32.5838 76.06 34.4C77.14 35.04 77.92 36.31 78.33 38.3C78.912 41.1348 78.7988 44.0685 78 46.85C76.12 46.13 70.43 47.98 72.87 50.15C73.1205 50.3791 73.4507 50.5011 73.79 50.49C70.6 54.3 79.79 53.49 81.05 52.95C82.31 52.41 82.89 51.46 82.47 49.81C84.73 47.5 86 44.16 86.74 40.15C89.01 39.73 88.39 37.61 87.74 36.15C87.09 34.69 86.34 33.93 85.66 32.47C87.9204 28.8841 89.136 24.7388 89.17 20.5C89.86 27.07 91.64 30.57 92.96 31.86C89.25 20.03 91.22 22.65 90.69 18.04C91.02 15.48 89.69 13.64 87.23 12.22C83.71 4.02 78.05 4.74 70.89 3.94C69.1619 3.70732 67.449 3.37341 65.76 2.94C64.8829 2.7716 63.993 2.67793 63.1 2.66C60.28 2.66 59.32 3.28 56.7 3.93C53.802 4.66205 50.8182 4.99844 47.83 4.93C35.23 4.74 40.16 0.0999951 24.46 3.82C19.29 5.04 16.32 7.43 14.96 11.03C13.34 9.49999 9 9 6.4 9.89C7.62 11.55 10.64 14.15 13.88 13.61C12.51 18.12 11.07 21.25 8.58 21.73C6.84447 20.9783 5.42854 19.6403 4.58 17.95C5.41 23.9 7.1 23.5 9.33 24.83C4.53 24.54 1.79 20.15 1.15 16.13C-2.08 24.67 2.32 29.06 7.03 30.13C7.57158 31.3103 8.34726 32.3684 9.31 33.24C10.2609 34.1263 11.3843 34.8071 12.61 35.24C10.7 31.08 19.11 33.64 22.61 30.98C23.7548 30.0398 24.6683 28.8492 25.28 27.5C26.1285 27.8033 26.9349 28.2133 27.68 28.72V28.65ZM15.94 20.17C15.5868 20.0297 15.1932 20.0297 14.84 20.17C14.4816 20.2987 14.1805 20.5503 13.99 20.88C13.9279 21.008 13.8938 21.1478 13.89 21.29C13.8907 21.4315 13.9213 21.5712 13.98 21.7C14.0404 21.8284 14.1293 21.9413 14.24 22.03C14.3462 22.1223 14.4731 22.1875 14.61 22.22C15.37 22.28 16 20.92 15.94 20.17Z" fill="url(#paint0_linear_4_539)"/>
</g>
<defs>
<linearGradient id="paint0_linear_4_539" x1="82.14" y1="5.14" x2="12.98" y2="52.55" gradientUnits="userSpaceOnUse">
<stop stop-color="#73DB59"/>
<stop offset="1" stop-color="#C0FFB1"/>
</linearGradient>
<clipPath id="clip0_4_539">
<rect width="93" height="53" fill="white" transform="translate(0 0.5)"/>
</clipPath>
</defs>
</svg>
