<svg width="82" height="53" viewBox="0 0 82 53" fill="none" xmlns="http://www.w3.org/2000/svg">
<path d="M26.44 6.77001C26.1676 6.74395 25.9148 6.61733 25.7308 6.41486C25.5467 6.21239 25.4448 5.94861 25.4448 5.67501C25.4448 5.40141 25.5467 5.13763 25.7308 4.93516C25.9148 4.73269 26.1676 4.60607 26.44 4.58001H49.63V2.32001C49.63 2.03093 49.7448 1.75368 49.9493 1.54926C50.1537 1.34485 50.4309 1.23001 50.72 1.23001C51.0091 1.23001 51.2863 1.34485 51.4908 1.54926C51.6952 1.75368 51.81 2.03093 51.81 2.32001V4.58001H79.43C79.5826 4.56541 79.7366 4.58287 79.882 4.63125C80.0275 4.67964 80.1612 4.7579 80.2746 4.861C80.3881 4.9641 80.4787 5.08977 80.5407 5.22995C80.6027 5.37013 80.6348 5.52172 80.6348 5.67501C80.6348 5.8283 80.6027 5.97989 80.5407 6.12007C80.4787 6.26025 80.3881 6.38593 80.2746 6.48903C80.1612 6.59213 80.0275 6.67038 79.882 6.71877C79.7366 6.76716 79.5826 6.78461 79.43 6.77001H76.92V38.26H79.55C79.8224 38.2861 80.0752 38.4127 80.2593 38.6152C80.4433 38.8176 80.5452 39.0814 80.5452 39.355C80.5452 39.6286 80.4433 39.8924 80.2593 40.0949C80.0752 40.2973 79.8224 40.424 79.55 40.45H51.38V41.57C51.4315 41.5958 51.4761 41.6335 51.51 41.68L58.2 48.06C58.3978 48.2616 58.5096 48.532 58.5119 48.8144C58.5142 49.0968 58.4068 49.369 58.2124 49.5738C58.018 49.7786 57.7517 49.9 57.4696 49.9123C57.1875 49.9247 56.9116 49.827 56.7 49.64L51.4 44.58V50.13C51.4146 50.2826 51.3972 50.4366 51.3488 50.582C51.3004 50.7275 51.2221 50.8612 51.119 50.9746C51.0159 51.0881 50.8903 51.1787 50.7501 51.2407C50.6099 51.3027 50.4583 51.3348 50.305 51.3348C50.1517 51.3348 50.0001 51.3027 49.8599 51.2407C49.7198 51.1787 49.5941 51.0881 49.491 50.9746C49.3879 50.8612 49.3096 50.7275 49.2613 50.582C49.2129 50.4366 49.1954 50.2826 49.21 50.13V44.36L43.68 49.64C43.4684 49.827 43.1925 49.9247 42.9104 49.9123C42.6283 49.9 42.362 49.7786 42.1676 49.5738C41.9732 49.369 41.8658 49.0968 41.8681 48.8144C41.8704 48.532 41.9823 48.2616 42.18 48.06L48.86 41.68C48.9679 41.5908 49.0853 41.5137 49.21 41.45V40.5H26.12C25.8476 40.474 25.5948 40.3473 25.4108 40.1449C25.2267 39.9424 25.1248 39.6786 25.1248 39.405C25.1248 39.1314 25.2267 38.8676 25.4108 38.6652C25.5948 38.4627 25.8476 38.3361 26.12 38.31H74.74V6.77001H26.44ZM47.78 33.63C47.6493 33.6284 47.5202 33.6013 47.4 33.55C47.1597 33.4426 46.9675 33.2503 46.86 33.01C46.7956 32.858 46.7699 32.6925 46.7851 32.5281C46.8002 32.3638 46.8558 32.2057 46.9469 32.0681C47.038 31.9304 47.1618 31.8175 47.3071 31.7393C47.4525 31.6611 47.615 31.6201 47.78 31.62H69.09C69.3552 31.62 69.6096 31.7254 69.7971 31.9129C69.9846 32.1004 70.09 32.3548 70.09 32.62C70.09 32.8852 69.9846 33.1396 69.7971 33.3271C69.6096 33.5147 69.3552 33.62 69.09 33.62L47.78 33.63ZM49.29 26.89C49.0248 26.89 48.7704 26.7847 48.5829 26.5971C48.3954 26.4096 48.29 26.1552 48.29 25.89C48.29 25.6248 48.3954 25.3704 48.5829 25.1829C48.7704 24.9954 49.0248 24.89 49.29 24.89H69.09C69.3552 24.89 69.6096 24.9954 69.7971 25.1829C69.9846 25.3704 70.09 25.6248 70.09 25.89C70.09 26.1552 69.9846 26.4096 69.7971 26.5971C69.6096 26.7847 69.3552 26.89 69.09 26.89H49.29ZM46.05 20.15C45.7848 20.15 45.5304 20.0447 45.3429 19.8571C45.1554 19.6696 45.05 19.4152 45.05 19.15C45.05 18.8848 45.1554 18.6304 45.3429 18.4429C45.5304 18.2554 45.7848 18.15 46.05 18.15H69.05C69.3152 18.15 69.5696 18.2554 69.7571 18.4429C69.9447 18.6304 70.05 18.8848 70.05 19.15C70.05 19.4152 69.9447 19.6696 69.7571 19.8571C69.5696 20.0447 69.3152 20.15 69.05 20.15H46.05ZM35.77 13.41C35.5048 13.41 35.2504 13.3047 35.0629 13.1171C34.8754 12.9296 34.77 12.6752 34.77 12.41C34.77 12.1448 34.8754 11.8904 35.0629 11.7029C35.2504 11.5154 35.5048 11.41 35.77 11.41H69.09C69.3552 11.41 69.6096 11.5154 69.7971 11.7029C69.9846 11.8904 70.09 12.1448 70.09 12.41C70.09 12.6752 69.9846 12.9296 69.7971 13.1171C69.6096 13.3047 69.3552 13.41 69.09 13.41H35.77ZM35.05 26.66L42.63 18.66C42.7379 18.5509 42.8664 18.4642 43.008 18.4051C43.1496 18.3459 43.3015 18.3155 43.455 18.3155C43.6085 18.3155 43.7604 18.3459 43.902 18.4051C44.0436 18.4642 44.1721 18.5509 44.28 18.66C44.4986 18.8809 44.6213 19.1792 44.6213 19.49C44.6213 19.8008 44.4986 20.0991 44.28 20.32L37.14 27.83C37.5544 28.3333 37.8052 28.9511 37.8589 29.6008C37.9125 30.2506 37.7665 30.9012 37.4402 31.4656C37.1139 32.03 36.6231 32.4813 36.0333 32.7591C35.4435 33.0369 34.7829 33.1279 34.14 33.02L26.2 31.5C25.3946 31.3437 24.6793 30.8859 24.2 30.22L21.63 26.66V26.75L21.42 38.64L21.73 40.42H8.40001L8.68001 38.77L8.43001 26.97V24.97C7.00001 26.32 7.00001 29.57 6.81001 31.55L6.47001 36.08C6.4976 36.5167 6.42137 36.9536 6.24755 37.3552C6.07373 37.7567 5.80728 38.1113 5.47001 38.39C4.90237 38.9257 4.14828 39.2191 3.36783 39.2079C2.58739 39.1967 1.84203 38.8818 1.29001 38.33C0.685616 37.3285 0.45866 36.144 0.650006 34.99C1.00001 28.99 1.65001 19.92 8.41001 16.99V17.07C11.26 15.93 14.62 16.43 17.68 16.43C19.0024 16.4043 20.3181 16.6247 21.56 17.08C22.3089 17.2563 22.9692 17.6965 23.42 18.32L28.57 25.47L35.05 26.66ZM15 1.72001C16.3414 1.71803 17.6532 2.11399 18.7695 2.85778C19.8858 3.60157 20.7563 4.65977 21.271 5.89848C21.7857 7.13719 21.9214 8.50073 21.6609 9.81658C21.4005 11.1324 20.7555 12.3414 19.8077 13.2906C18.8599 14.2398 17.6519 14.8866 16.3364 15.149C15.0209 15.4114 13.6572 15.2777 12.4177 14.7649C11.1783 14.252 10.1188 13.383 9.37334 12.2678C8.6279 11.1526 8.23001 9.84139 8.23001 8.50001C8.22737 7.60975 8.40061 6.72774 8.73978 5.90461C9.07895 5.08149 9.57736 4.33347 10.2064 3.70349C10.8355 3.07352 11.5827 2.574 12.4054 2.23361C13.228 1.89323 14.1097 1.71869 15 1.72001Z" fill="url(#paint0_linear_4_548)"/>
<defs>
<linearGradient id="paint0_linear_4_548" x1="72.3" y1="5.54001" x2="8.06001" y2="44.23" gradientUnits="userSpaceOnUse">
<stop stop-color="#45D9FF"/>
<stop offset="1" stop-color="#00CCFF"/>
</linearGradient>
</defs>
</svg>
