<svg width="66" height="50" viewBox="0 0 66 50" fill="none" xmlns="http://www.w3.org/2000/svg">
<path fill-rule="evenodd" clip-rule="evenodd" d="M2.62 1.78999H55.81C56.2167 1.79263 56.6058 1.95605 56.8925 2.24457C57.1791 2.53309 57.34 2.92329 57.34 3.32999V6.92999H55.34V5.34999C55.3413 5.17271 55.3077 4.9969 55.2411 4.8326C55.1744 4.66831 55.0761 4.51875 54.9517 4.39246C54.8272 4.26617 54.6792 4.16563 54.5159 4.09657C54.3526 4.02752 54.1773 3.9913 54 3.98999H4.45C4.27187 3.98999 4.0955 4.02524 3.93105 4.0937C3.76661 4.16217 3.61734 4.26251 3.49185 4.38893C3.36636 4.51535 3.26713 4.66535 3.19987 4.8303C3.13262 4.99524 3.09868 5.17187 3.1 5.34999V33.13C3.09868 33.3086 3.13255 33.4857 3.19968 33.6512C3.26682 33.8167 3.36589 33.9674 3.49125 34.0946C3.61661 34.2218 3.7658 34.3231 3.9303 34.3927C4.0948 34.4622 4.2714 34.4987 4.45 34.5H44.18V40.38H2.62C2.2133 40.3774 1.82416 40.2139 1.53751 39.9254C1.25086 39.6369 1.08999 39.2467 1.09 38.84V3.32999C1.08999 2.92329 1.25086 2.53309 1.53751 2.24457C1.82416 1.95605 2.2133 1.79263 2.62 1.78999ZM49.22 10.08H63.22C63.4721 10.0813 63.7215 10.1323 63.954 10.23C64.1864 10.3277 64.3974 10.4702 64.5747 10.6494C64.7521 10.8286 64.8924 11.041 64.9877 11.2745C65.083 11.5079 65.1313 11.7579 65.13 12.01V43.11C65.13 43.6184 64.9294 44.1063 64.5718 44.4677C64.2142 44.8291 63.7284 45.0347 63.22 45.04H49.22C48.7116 45.0347 48.2258 44.8291 47.8682 44.4677C47.5106 44.1063 47.31 43.6184 47.31 43.11V12.01C47.3087 11.7579 47.357 11.5079 47.4523 11.2745C47.5476 11.041 47.6879 10.8286 47.8653 10.6494C48.0426 10.4702 48.2536 10.3277 48.486 10.23C48.7184 10.1323 48.9679 10.0813 49.22 10.08ZM60.31 18.22H62.07V18.86H60.31V18.22ZM56.2 37.05C56.6162 37.046 57.0241 37.1658 57.3721 37.3941C57.7201 37.6225 57.9923 37.949 58.1543 38.3324C58.3164 38.7158 58.3608 39.1386 58.2821 39.5473C58.2033 39.956 58.0049 40.332 57.712 40.6277C57.4191 40.9234 57.045 41.1254 56.6371 41.2081C56.2292 41.2907 55.8059 41.2503 55.421 41.092C55.0362 40.9336 54.707 40.6645 54.4753 40.3187C54.2437 39.973 54.12 39.5662 54.12 39.15C54.1187 38.8755 54.1714 38.6035 54.2753 38.3494C54.3791 38.0953 54.5319 37.8642 54.7251 37.6692C54.9182 37.4742 55.1479 37.3192 55.4009 37.2129C55.654 37.1067 55.9255 37.0513 56.2 37.05ZM49.9 16.39H62.5C62.6061 16.39 62.7078 16.4321 62.7828 16.5071C62.8579 16.5822 62.9 16.6839 62.9 16.79V19.27C62.9 19.3761 62.8579 19.4778 62.7828 19.5528C62.7078 19.6279 62.6061 19.67 62.5 19.67H49.9C49.7939 19.67 49.6922 19.6279 49.6172 19.5528C49.5421 19.4778 49.5 19.3761 49.5 19.27V16.79C49.5025 16.6847 49.5455 16.5844 49.62 16.51C49.6944 16.4355 49.7947 16.3925 49.9 16.39ZM22.28 42.5H36.15C36.1525 43.7826 36.4965 45.0414 37.1468 46.1469C37.7971 47.2524 38.7302 48.1647 39.85 48.79H18.58C20.72 47.22 22.29 45.32 22.28 42.5Z" fill="url(#paint0_linear_4_550)"/>
<defs>
<linearGradient id="paint0_linear_4_550" x1="60.25" y1="9.41999" x2="4.78999" y2="37.84" gradientUnits="userSpaceOnUse">
<stop stop-color="#006CFF"/>
<stop offset="1" stop-color="#30CDFF"/>
</linearGradient>
</defs>
</svg>
