<svg width="59" height="60" viewBox="0 0 59 60" fill="none" xmlns="http://www.w3.org/2000/svg">
<path fill-rule="evenodd" clip-rule="evenodd" d="M29.36 1.87C34.9968 1.87 40.507 3.54149 45.1938 6.67311C49.8806 9.80473 53.5335 14.2558 55.6906 19.4635C57.8477 24.6712 58.4121 30.4016 57.3124 35.9301C56.2127 41.4585 53.4983 46.5367 49.5125 50.5225C45.5267 54.5083 40.4485 57.2227 34.9201 58.3224C29.3916 59.4221 23.6612 58.8577 18.4535 56.7006C13.2458 54.5435 8.79474 50.8905 5.66312 46.2037C2.5315 41.5169 0.860001 36.0068 0.860001 30.37C0.860001 22.8113 3.86267 15.5622 9.20746 10.2175C14.5522 4.87267 21.8013 1.87 29.36 1.87ZM37.19 4.87C41.9503 6.45817 46.1707 9.34765 49.3732 13.2111C52.5757 17.0746 54.6323 21.7577 55.31 26.73L54.4 26.64C54.2068 27.1311 54.1018 27.6524 54.09 28.18C54.09 28.92 55.02 29.41 55.02 30.97C55.02 31.38 54.02 32.22 54.02 32.36L52.57 30.66V32.82H52.35L51.95 28.82L51.14 29.07L50.14 26.07L47 29.42V31.85L46 32.55L44.9 26.31L44.24 26.8L42.75 24.8L40.51 24.87L39.66 23.87L38.78 24.11L37.06 22.11L36.73 22.33L37.79 25.06H39.03V24.5H39.65C40.1 25.73 40.58 25 40.58 25.74C40.58 28.31 37.4 30.2 35.32 30.69C35.43 31.15 35.39 31.62 35.94 31.62C37.1 31.62 36.52 31.41 37.79 31.31C37.79 33.94 34.79 37.08 33.52 39.03L34.08 43.03C34.23 43.91 32.26 44.84 31.6 45.82L31.92 47.37L31.01 47.73C30.9014 48.594 30.5031 49.3956 29.8801 50.0041C29.2571 50.6125 28.4463 50.9918 27.58 51.08H25.63C25.63 48.91 24.08 45.81 24.08 44.27C24.08 42.97 24.7 42.79 24.7 41.18C24.7 39.57 23.15 37.55 23.15 37.18V34.68H21.92C21.73 33.99 21.84 33.75 20.99 33.75H20.68C19.33 33.75 19.56 34.37 18.2 34.37H17C15.88 34.37 13.9 30.79 13.9 30.37V26.64C13.9 25.03 15.37 23.29 16.38 22.64V21.07L17.77 19.65L18.54 19.52C20.2 19.52 20.01 18.59 21.02 18.59H23.8V20.76L26.86 22.07L27.15 20.74C28.54 21.07 28.9 21.74 30.61 21.74H31.23C32.4 21.74 32.47 20.18 32.47 18.95L30 19.15L28.88 16.8L27.81 17.08C28 17.92 28.11 17.57 28.11 18.28C28.11 18.7 27.76 18.75 27.49 18.9L26.41 16.18L24.11 14.5L23.8 14.8L25.8 16.86C25.54 17.6 25.5 19.74 24.42 18.24L25.42 17.76L22.9 15.11L21.39 15.7L19.9 17.13C19.74 18.28 19.43 18.86 18.23 18.86C17.42 18.86 17.91 18.65 16.68 18.55V15.5H19.46L18.56 13.44L18.23 13.64V13.02L22.75 10.94C22.66 10.29 22.56 10.64 22.56 9.93999C22.56 9.93999 22.86 9.32999 22.87 9.31999L24 10.04L23.74 8.7L21.93 9.08L21.6 7.5C23 6.7 26.18 4.04999 27.18 4.04999H28.11C29.5536 4.21748 30.9305 4.75102 32.11 5.6L29.62 5.35L31.47 6.86L31.64 6.22L33 5.84V4.98H33.62V5.91L37.19 4.87ZM55.11 35.19C55.04 35.58 54.96 35.97 54.88 36.36L54.73 35.36L55.11 35.19ZM54.22 38.7L54.01 39.32H53.78V38.7H54.22ZM6.31 45.1C4.60722 42.5131 3.36552 39.6508 2.64 36.64L7.64 39.06V40.56C7.64 41.11 6.7 42.28 6.4 42.72L6.31 45.1Z" fill="url(#paint0_linear_4_554)"/>
<defs>
<linearGradient id="paint0_linear_4_554" x1="63" y1="2.31999" x2="-9.56999" y2="62.82" gradientUnits="userSpaceOnUse">
<stop stop-color="#00FF81"/>
<stop offset="1" stop-color="#00FFD1"/>
</linearGradient>
</defs>
</svg>
