<svg width="72" height="53" viewBox="0 0 72 53" fill="none" xmlns="http://www.w3.org/2000/svg">
<path fill-rule="evenodd" clip-rule="evenodd" d="M66.59 22.88V50.3C66.5874 50.5193 66.4991 50.7289 66.344 50.884C66.1889 51.0391 65.9793 51.1274 65.76 51.13H58.65C58.4299 51.13 58.2188 51.0426 58.0631 50.8869C57.9074 50.7312 57.82 50.5201 57.82 50.3V29.9L62.88 25.03L65.75 22.27C66.0149 22.4933 66.2957 22.6972 66.59 22.88ZM28.22 14.88L33.69 10.1C37.85 14.16 41.89 19.1 46.01 23.1L61.01 8.1L56.19 3.26L71.28 2.13L70.43 17.5L65.79 12.87C62.46 16.23 54.58 23.65 51.25 26.97C47.04 31.17 45.02 31.25 40.81 27.05L33.69 19.15L32.31 20.37C32.1 19.91 31.86 19.46 31.61 19.02C31.0869 18.1252 30.4809 17.2815 29.8 16.5C29.3105 15.9218 28.7827 15.3772 28.22 14.87V14.88ZM18.55 15.04C16.9824 14.9381 15.4099 15.1418 13.92 15.64C11.1134 16.5705 8.75374 18.5124 7.30071 21.0876C5.84769 23.6627 5.40539 26.6866 6.06 29.57C6.27201 30.5487 6.60806 31.4964 7.06 32.39L1.46 37.76C1.40416 37.8108 1.35936 37.8725 1.3284 37.9413C1.29743 38.0101 1.28096 38.0845 1.28 38.16C1.27816 38.2355 1.29136 38.3107 1.31883 38.3811C1.3463 38.4515 1.38749 38.5157 1.44 38.57L4.62 41.89C4.673 41.9435 4.73608 41.986 4.80559 42.015C4.87511 42.044 4.94968 42.0589 5.025 42.0589C5.10032 42.0589 5.17489 42.044 5.2444 42.015C5.31392 41.986 5.377 41.9435 5.43 41.89L10.85 36.68C11.6708 37.2591 12.5611 37.7328 13.5 38.09C14.6018 38.5003 15.757 38.7495 16.93 38.83C18.4978 38.939 20.0718 38.7372 21.5613 38.2361C23.0509 37.735 24.4268 36.9445 25.61 35.91C27.9966 33.8301 29.4604 30.8881 29.68 27.73C29.7857 26.1663 29.5852 24.597 29.09 23.11C28.5833 21.6389 27.7953 20.2803 26.77 19.11C24.6802 16.7268 21.7323 15.2672 18.57 15.05L18.55 15.04ZM11.46 19.78C12.4028 18.9522 13.5007 18.3199 14.69 17.92C17.091 17.1203 19.7106 17.3 21.98 18.42C23.1054 18.9715 24.1086 19.7435 24.93 20.69C25.7418 21.6241 26.3634 22.7077 26.76 23.88C27.3721 25.666 27.4364 27.5943 26.9446 29.4171C26.4528 31.24 25.4274 32.8742 24 34.11C23.0556 34.9357 21.9582 35.5677 20.77 35.97C18.3782 36.7682 15.7691 36.5995 13.5 35.5C11.2453 34.3737 9.52452 32.4051 8.71 30.02C8.31801 28.8455 8.16169 27.6051 8.25 26.37C8.3446 25.1193 8.68439 23.8995 9.25 22.78C9.77606 21.6379 10.5278 20.614 11.46 19.77V19.78ZM23.66 41.78V50.3C23.66 50.5201 23.5726 50.7312 23.4169 50.8869C23.2612 51.0426 23.0501 51.13 22.83 51.13H15.72C15.4999 51.13 15.2888 51.0426 15.1331 50.8869C14.9774 50.7312 14.89 50.5201 14.89 50.3V42.66C15.4758 42.7619 16.0666 42.832 16.66 42.87C18.7523 43.0043 20.8508 42.7326 22.84 42.07C23.11 41.98 23.39 41.88 23.66 41.77V41.78ZM38 33.5V50.3C37.9974 50.5193 37.9091 50.7289 37.754 50.884C37.5989 51.0391 37.3893 51.1274 37.17 51.13H30C29.7799 51.13 29.5688 51.0426 29.4131 50.8869C29.2574 50.7312 29.17 50.5201 29.17 50.3V38.08C30.3395 36.8859 31.3146 35.516 32.06 34.02C32.54 33.0887 32.9221 32.1102 33.2 31.1C33.3821 30.4435 33.5191 29.7752 33.61 29.1L35.51 31.2C35.5848 31.2913 35.665 31.3781 35.75 31.46C36.4631 32.1796 37.2142 32.8606 38 33.5ZM52.31 34.75V50.3C52.3074 50.5193 52.2191 50.7289 52.064 50.884C51.9089 51.0391 51.6993 51.1274 51.48 51.13H44.34C44.1199 51.13 43.9088 51.0426 43.7531 50.8869C43.5974 50.7312 43.51 50.5201 43.51 50.3V36.36C44.3633 36.5497 45.2361 36.6369 46.11 36.62C48.3056 36.6061 50.4497 35.9528 52.28 34.74L52.31 34.75Z" fill="url(#paint0_linear_4_556)"/>
<path d="M18.77 22.5H20.71L21.43 21.36H14.11L13.4 22.5H14.63C15.92 22.5 17.1 22.6 17.58 23.74H14.11L13.4 24.88H17.72V24.93C17.72 25.78 17.06 27.07 14.87 27.07H13.78V28.16L18.05 33.77H20L15.54 27.96C16.4362 27.9822 17.3109 27.6844 18.0073 27.1199C18.7037 26.5555 19.1762 25.7613 19.34 24.88H20.71L21.43 23.74H19.29C19.2357 23.2863 19.0556 22.8567 18.77 22.5Z" fill="url(#paint1_linear_4_556)"/>
<defs>
<linearGradient id="paint0_linear_4_556" x1="36.2799" y1="2.13" x2="36.2799" y2="51.13" gradientUnits="userSpaceOnUse">
<stop stop-color="#5ACF30"/>
<stop offset="1" stop-color="#26FF7D"/>
</linearGradient>
<linearGradient id="paint1_linear_4_556" x1="17.415" y1="21.36" x2="17.415" y2="33.77" gradientUnits="userSpaceOnUse">
<stop stop-color="#5ACF30"/>
<stop offset="1" stop-color="#26FF7D"/>
</linearGradient>
</defs>
</svg>
