<svg width="58" height="57" viewBox="0 0 58 57" fill="none" xmlns="http://www.w3.org/2000/svg">
<g clip-path="url(#clip0_4_641)">
<path d="M47.036 43.3408C45.4445 46.5617 43.0514 49.3191 40.0865 51.348C37.1217 53.3769 33.6848 54.609 30.1062 54.9261C26.5277 55.2431 22.9277 54.6344 19.6523 53.1584C16.377 51.6823 13.5363 49.3886 11.4034 46.4977" stroke="url(#paint0_linear_4_641)" stroke-width="2"/>
<path d="M9.79404 24.1733C12.1202 19.8302 15.903 16.446 20.4774 14.6159" stroke="url(#paint1_linear_4_641)" stroke-width="2"/>
<path d="M46.7216 24.1733C44.3954 19.8302 40.6126 16.446 36.0382 14.6159" stroke="url(#paint2_linear_4_641)" stroke-width="2"/>
<path d="M28.2239 7.63534C29.9321 7.63534 31.2916 6.24095 31.2916 4.56767C31.2916 2.8944 29.8972 1.5 28.2239 1.5C26.5158 1.5 25.1562 2.8944 25.1562 4.56767C25.1562 6.24095 26.5158 7.63534 28.2239 7.63534ZM28.2239 2.30178C29.4789 2.30178 30.4898 3.31271 30.4898 4.56767C30.4898 5.82263 29.4789 6.83357 28.2239 6.83357C26.969 6.83357 25.958 5.82263 25.958 4.56767C25.958 3.31271 26.969 2.30178 28.2239 2.30178Z" fill="url(#paint3_linear_4_641)" stroke="url(#paint4_linear_4_641)" stroke-width="0.4"/>
<path d="M28.2242 8.01855C25.296 8.01855 22.8906 10.4239 22.8906 13.3521V14.2585C22.8906 14.5025 23.0649 14.6768 23.3089 14.6768C23.553 14.6768 23.7273 14.5025 23.7273 14.2585V13.3521C23.7273 10.8771 25.7491 8.82033 28.2591 8.82033C30.7341 8.82033 32.7908 10.8422 32.7908 13.3521V14.2585C32.7908 14.5025 32.9651 14.6768 33.2092 14.6768C33.4532 14.6768 33.6275 14.5025 33.6275 14.2585V13.3521C33.5578 10.4239 31.1524 8.01855 28.2242 8.01855Z" fill="url(#paint5_linear_4_641)" stroke="url(#paint6_linear_4_641)" stroke-width="0.4"/>
<path d="M55.2046 27.3174H41.1274C39.837 27.3174 38.7812 28.3732 38.7812 29.6636V38.4618C38.7812 39.7522 39.837 40.808 41.1274 40.808H55.2046C56.495 40.808 57.5508 39.7522 57.5508 38.4618V29.6636C57.5508 28.3732 56.495 27.3174 55.2046 27.3174ZM56.3777 38.4618C56.3777 39.107 55.8498 39.6349 55.2046 39.6349H41.1274C40.4822 39.6349 39.9543 39.107 39.9543 38.4618V29.6636C39.9543 29.0184 40.4822 28.4905 41.1274 28.4905H55.2046C55.8498 28.4905 56.3777 29.0184 56.3777 29.6636V38.4618Z" fill="url(#paint7_linear_4_641)"/>
<path d="M54.264 30.4257L48.1639 35.4114L42.0638 30.4257C41.8292 30.2498 41.4186 30.2498 41.2426 30.4844C41.0667 30.719 41.0667 31.1296 41.3013 31.3055L47.7533 36.5845C47.8706 36.7018 47.9879 36.7018 48.1052 36.7018C48.2225 36.7018 48.3398 36.6431 48.4572 36.5845L54.9092 31.3055C55.1438 31.1296 55.2025 30.719 54.9678 30.4844C54.8505 30.2498 54.4986 30.1911 54.264 30.4257Z" fill="url(#paint8_linear_4_641)"/>
<path d="M17.5431 34.6139C16.0372 31.0783 13.2873 28.3939 9.81726 26.9535C9.55537 26.8226 9.228 26.9535 9.09705 27.2809C8.96611 27.6082 9.09705 27.9356 9.42442 28.0665C12.6326 29.376 15.1206 31.9295 16.561 35.1377C16.6265 35.3341 16.8884 35.465 17.0848 35.465C17.1503 35.465 17.2158 35.465 17.2812 35.3996C17.5431 35.2686 17.6741 34.9412 17.5431 34.6139Z" fill="url(#paint9_linear_4_641)"/>
<path d="M9.1627 31.1427C11.0614 31.9284 12.6328 33.4997 13.4839 35.3984C13.5494 35.5949 13.7458 35.7258 14.0077 35.7258C14.0732 35.7258 14.1387 35.7258 14.2042 35.6603C14.466 35.5294 14.597 35.202 14.466 34.9401C13.4839 32.714 11.7816 31.0117 9.55554 30.0951C9.29365 29.9642 8.96628 30.0951 8.83534 30.4225C8.70439 30.6844 8.83534 31.0117 9.1627 31.1427Z" fill="url(#paint10_linear_4_641)"/>
<path d="M14.5977 37.888C14.2703 37.5607 13.9429 37.4297 13.6156 37.4297C13.2882 37.4297 12.8954 37.5607 12.6335 37.888C12.1751 38.3463 11.7168 38.8046 11.2585 39.263C11.193 39.3284 11.1276 39.3939 11.0621 39.3939C10.9966 39.3939 10.9311 39.3939 10.9311 39.3284C10.6038 39.132 10.2764 39.0011 10.0145 38.8701C8.63958 38.019 7.52654 36.9059 6.54444 35.6619C6.02065 35.0727 5.62781 34.4179 5.30044 33.6323C5.23497 33.5013 5.23497 33.3704 5.36591 33.2394C5.82423 32.7811 6.28254 32.3228 6.74086 31.8645C7.39559 31.2097 7.39559 30.4895 6.74086 29.8348C6.34801 29.442 6.02065 29.1146 5.62781 28.7218C5.23497 28.3289 4.9076 27.9361 4.51476 27.6087C4.18739 27.2813 3.86003 27.1504 3.53266 27.1504C3.20529 27.1504 2.81245 27.2813 2.55056 27.6087C2.09225 28.067 1.63393 28.5253 1.17562 28.9836C0.717306 29.3765 0.520886 29.9003 0.455412 30.4895C0.389939 31.4716 0.651833 32.3883 0.979199 33.3049C1.69941 35.1381 2.74698 36.8404 3.99097 38.3463C5.69328 40.376 7.78843 42.0128 10.2109 43.1914C11.324 43.7151 12.437 44.108 13.6156 44.1735C13.681 44.1735 13.7465 44.1735 13.812 44.1735C14.5322 44.1735 15.1869 43.977 15.7762 43.3223C16.169 42.864 16.6273 42.4712 17.0856 42.0128C17.7404 41.3581 17.7404 40.6379 17.0856 39.9832C16.1035 39.3939 15.3833 38.6082 14.5977 37.888ZM16.0381 41.3581C15.9071 41.4891 15.7762 41.62 15.5798 41.751C15.2524 42.0128 14.9905 42.3402 14.6631 42.6676C14.4012 42.9949 14.0739 43.1259 13.5501 43.1259C13.4846 43.1259 13.4191 43.1259 13.4191 43.1259C12.5025 43.0604 11.5859 42.7985 10.4074 42.2093C8.18127 41.0962 6.21707 39.5903 4.58023 37.6261C3.27077 36.0548 2.35414 34.5489 1.76488 32.912C1.43751 31.9954 1.30657 31.2752 1.30657 30.6205C1.30657 30.2931 1.43751 30.0312 1.69941 29.8348C2.02677 29.5729 2.28867 29.2455 2.55056 28.9836C2.74698 28.7872 2.9434 28.5908 3.07435 28.4599C3.20529 28.3289 3.27077 28.3289 3.27077 28.3289C3.27077 28.3289 3.40171 28.3289 3.46719 28.4599C3.72908 28.7218 3.99097 28.9836 4.18739 29.1801L4.58023 29.5729C4.77665 29.7693 4.97307 29.9657 5.16949 30.1622C5.36591 30.3586 5.49686 30.4895 5.69328 30.686C5.8897 30.8824 5.8897 30.9478 5.69328 31.1443L5.49686 31.3407C5.10402 31.7335 4.71118 32.1264 4.31834 32.5192C3.86003 32.9775 3.72908 33.5668 3.99097 34.156C4.31834 34.9417 4.77665 35.6619 5.43139 36.4476C6.60991 37.888 7.8539 39.0011 9.22884 39.8522C9.42526 39.9832 9.68716 40.1141 9.88358 40.1796C10.0145 40.2451 10.08 40.3105 10.2109 40.3105C10.4728 40.4415 10.6693 40.507 10.9311 40.507C11.193 40.507 11.5859 40.4415 11.9787 40.0486C12.437 39.5903 12.8954 39.132 13.3537 38.6737C13.4846 38.5428 13.5501 38.5428 13.5501 38.5428C13.5501 38.5428 13.681 38.5428 13.7465 38.6737C14.4667 39.3939 15.2524 40.1796 15.9726 40.8998C16.2345 41.0962 16.2345 41.1617 16.0381 41.3581Z" fill="url(#paint11_linear_4_641)"/>
</g>
<defs>
<linearGradient id="paint0_linear_4_641" x1="29.2197" y1="43.3408" x2="29.2197" y2="55.0078" gradientUnits="userSpaceOnUse">
<stop stop-color="#E9BBFF"/>
<stop offset="1" stop-color="#D299FF"/>
</linearGradient>
<linearGradient id="paint1_linear_4_641" x1="15.1357" y1="14.6159" x2="15.1357" y2="24.1733" gradientUnits="userSpaceOnUse">
<stop stop-color="#E9BBFF"/>
<stop offset="1" stop-color="#D299FF"/>
</linearGradient>
<linearGradient id="paint2_linear_4_641" x1="41.3799" y1="14.6159" x2="41.3799" y2="24.1733" gradientUnits="userSpaceOnUse">
<stop stop-color="#E9BBFF"/>
<stop offset="1" stop-color="#D299FF"/>
</linearGradient>
<linearGradient id="paint3_linear_4_641" x1="28.2239" y1="1.5" x2="28.2239" y2="7.63534" gradientUnits="userSpaceOnUse">
<stop stop-color="#E9BBFF"/>
<stop offset="1" stop-color="#D299FF"/>
</linearGradient>
<linearGradient id="paint4_linear_4_641" x1="28.2239" y1="1.5" x2="28.2239" y2="7.63534" gradientUnits="userSpaceOnUse">
<stop stop-color="#E9BBFF"/>
<stop offset="1" stop-color="#D299FF"/>
</linearGradient>
<linearGradient id="paint5_linear_4_641" x1="28.259" y1="8.01855" x2="28.259" y2="14.6768" gradientUnits="userSpaceOnUse">
<stop stop-color="#E9BBFF"/>
<stop offset="1" stop-color="#D299FF"/>
</linearGradient>
<linearGradient id="paint6_linear_4_641" x1="28.259" y1="8.01855" x2="28.259" y2="14.6768" gradientUnits="userSpaceOnUse">
<stop stop-color="#E9BBFF"/>
<stop offset="1" stop-color="#D299FF"/>
</linearGradient>
<linearGradient id="paint7_linear_4_641" x1="48.166" y1="27.3174" x2="48.166" y2="40.808" gradientUnits="userSpaceOnUse">
<stop stop-color="#E9BBFF"/>
<stop offset="1" stop-color="#D299FF"/>
</linearGradient>
<linearGradient id="paint8_linear_4_641" x1="48.1172" y1="30.2764" x2="48.1172" y2="36.7018" gradientUnits="userSpaceOnUse">
<stop stop-color="#E9BBFF"/>
<stop offset="1" stop-color="#D299FF"/>
</linearGradient>
<linearGradient id="paint9_linear_4_641" x1="13.3207" y1="26.9033" x2="13.3207" y2="35.465" gradientUnits="userSpaceOnUse">
<stop stop-color="#E9BBFF"/>
<stop offset="1" stop-color="#D299FF"/>
</linearGradient>
<linearGradient id="paint10_linear_4_641" x1="11.6513" y1="30.0449" x2="11.6513" y2="35.7258" gradientUnits="userSpaceOnUse">
<stop stop-color="#E9BBFF"/>
<stop offset="1" stop-color="#D299FF"/>
</linearGradient>
<linearGradient id="paint11_linear_4_641" x1="9.01101" y1="27.1504" x2="9.01101" y2="44.1735" gradientUnits="userSpaceOnUse">
<stop stop-color="#E9BBFF"/>
<stop offset="1" stop-color="#D299FF"/>
</linearGradient>
<clipPath id="clip0_4_641">
<rect width="58" height="56" fill="white" transform="translate(0 0.5)"/>
</clipPath>
</defs>
</svg>
