<svg width="1232" height="215" viewBox="0 0 1232 215" fill="none" xmlns="http://www.w3.org/2000/svg">
<path d="M152.06 37.8164C166.817 37.8164 178.522 42.2859 187.177 51.2248C195.975 60.1638 200.373 72.5794 200.373 88.4704V157.854H164.191V93.3656C164.191 85.7036 162.134 79.8157 158.019 75.7005C154.047 71.4439 148.513 69.3156 141.418 69.3156C134.323 69.3156 128.72 71.4439 124.605 75.7005C120.632 79.8157 118.645 85.7036 118.645 93.3656V157.854H82.4638V93.3656C82.4638 85.7036 80.4064 79.8157 76.2916 75.7005C72.3188 71.4439 66.7852 69.3156 59.6907 69.3156C52.5963 69.3156 46.9918 71.4439 42.877 75.7005C38.9042 79.8157 36.9177 85.7036 36.9177 93.3656V157.854H0.523438V39.0934H36.9177V53.9916C40.6068 49.0251 45.431 45.1241 51.3903 42.2859C57.3496 39.3062 64.0892 37.8164 71.6093 37.8164C80.5483 37.8164 88.4941 39.7319 95.4465 43.5629C102.541 47.3939 108.075 52.8561 112.047 59.9509C116.163 53.4245 121.766 48.1037 128.861 43.9885C135.956 39.8734 143.688 37.8164 152.06 37.8164ZM347.14 39.0934L272.649 214.254H233.488L260.731 153.81L212.418 39.0934H253.069L280.524 113.372L307.767 39.0934H347.14Z" fill="#16A34A"/>
<path d="M414.362 159.343C403.436 159.343 393.646 157.569 384.991 154.022C376.336 150.475 369.383 145.225 364.134 138.273C359.026 131.32 356.33 122.949 356.046 113.158H394.781C395.348 118.692 397.264 122.949 400.528 125.928C403.792 128.766 408.048 130.185 413.298 130.185C418.69 130.185 422.947 128.979 426.068 126.567C429.189 124.013 430.75 120.536 430.75 116.138C430.75 112.449 429.473 109.399 426.919 106.986C424.506 104.574 421.457 102.588 417.767 101.027C414.22 99.4658 409.112 97.693 402.443 95.7061C392.794 92.7265 384.92 89.7469 378.819 86.7672C372.718 83.7876 367.467 79.3895 363.069 73.5716C358.671 67.7538 356.472 60.1632 356.472 50.7986C356.472 36.8932 361.508 26.0387 371.583 18.2353C381.657 10.2892 394.781 6.31673 410.957 6.31673C427.416 6.31673 440.682 10.2892 450.756 18.2353C460.831 26.0387 466.222 36.9645 466.931 51.0114H427.557C427.273 46.1877 425.5 42.4268 422.237 39.7313C418.973 36.8932 414.788 35.4747 409.68 35.4747C405.281 35.4747 401.733 36.6803 399.038 39.0929C396.343 41.3626 394.994 44.6979 394.994 49.096C394.994 53.9197 397.264 57.6806 401.805 60.3761C406.346 63.0715 413.439 65.981 423.088 69.1022C432.737 72.366 440.54 75.4871 446.5 78.4668C452.6 81.4464 457.851 85.7744 462.249 91.4495C466.647 97.1246 468.847 104.432 468.847 113.371C468.847 121.885 466.647 129.618 462.249 136.57C457.992 143.522 451.749 149.056 443.52 153.171C435.291 157.286 425.571 159.343 414.362 159.343ZM484.008 98.473C484.008 86.1287 486.491 75.3456 491.457 66.1225C496.565 56.8994 503.589 49.8058 512.528 44.8393C521.608 39.8728 531.967 37.3902 543.601 37.3902C558.499 37.3902 570.915 41.2925 580.847 49.096C590.921 56.8994 597.519 67.8965 600.64 82.0849H561.905C558.641 73.0045 552.327 68.4637 542.963 68.4637C536.293 68.4637 530.973 71.089 527 76.3385C523.028 81.4464 521.041 88.8242 521.041 98.473C521.041 108.122 523.028 115.571 527 120.82C530.973 125.928 536.293 128.482 542.963 128.482C552.327 128.482 558.641 123.941 561.905 114.861H600.64C597.519 128.766 590.921 139.691 580.847 147.637C570.772 155.583 558.358 159.556 543.601 159.556C531.967 159.556 521.608 157.073 512.528 152.107C503.589 147.14 496.565 140.047 491.457 130.823C486.491 121.6 484.008 110.817 484.008 98.473ZM693.109 37.8159C706.73 37.8159 717.655 42.3567 725.885 51.4371C734.115 60.3761 738.23 72.7203 738.23 88.4699V157.853H702.048V93.365C702.048 85.4189 699.99 79.2467 695.876 74.8486C691.761 70.4505 686.227 68.2508 679.275 68.2508C672.322 68.2508 666.788 70.4505 662.674 74.8486C658.559 79.2467 656.502 85.4189 656.502 93.365V157.853H620.108V0.357422H656.502V55.0553C660.19 49.8058 665.228 45.6193 671.613 42.4982C677.998 39.377 685.163 37.8159 693.109 37.8159ZM875.469 96.5575C875.469 99.9628 875.256 103.51 874.83 107.199H792.464C793.033 114.577 795.374 120.253 799.488 124.226C803.744 128.057 808.924 129.972 815.024 129.972C824.106 129.972 830.42 126.141 833.966 118.479H872.702C870.716 126.283 867.098 133.306 861.847 139.55C856.74 145.793 850.284 150.688 842.48 154.235C834.676 157.782 825.95 159.556 816.301 159.556C804.667 159.556 794.31 157.073 785.228 152.107C776.148 147.14 769.053 140.047 763.945 130.823C758.837 121.6 756.283 110.817 756.283 98.473C756.283 86.1287 758.767 75.3456 763.732 66.1225C768.84 56.8994 775.935 49.8058 785.015 44.8393C794.097 39.8728 804.526 37.3902 816.301 37.3902C827.794 37.3902 838.01 39.8027 846.949 44.6265C855.888 49.4503 862.842 56.3322 867.807 65.2712C872.915 74.2101 875.469 84.6389 875.469 96.5575ZM838.223 86.9801C838.223 80.7366 836.095 75.7713 831.838 72.0818C827.581 68.3923 822.261 66.5482 815.876 66.5482C809.775 66.5482 804.596 68.3222 800.339 71.869C796.225 75.4158 793.671 80.4536 792.677 86.9801H838.223ZM1046.21 37.8159C1060.96 37.8159 1072.67 42.2853 1081.32 51.2243C1090.12 60.1632 1094.52 72.5788 1094.52 88.4699V157.853H1058.34V93.365C1058.34 85.7031 1056.28 79.8151 1052.16 75.7C1048.19 71.4433 1042.66 69.315 1035.56 69.315C1028.47 69.315 1022.86 71.4433 1018.75 75.7C1014.78 79.8151 1012.79 85.7031 1012.79 93.365V157.853H976.609V93.365C976.609 85.7031 974.552 79.8151 970.437 75.7C966.464 71.4433 960.931 69.315 953.836 69.315C946.742 69.315 941.137 71.4433 937.022 75.7C933.05 79.8151 931.063 85.7031 931.063 93.365V157.853H894.669V39.0929H931.063V53.9911C934.752 49.0246 939.576 45.1235 945.536 42.2853C951.495 39.3057 958.235 37.8159 965.755 37.8159C974.694 37.8159 982.64 39.7314 989.592 43.5623C996.687 47.3933 1002.22 52.8556 1006.19 59.9504C1010.31 53.424 1015.91 48.1032 1023.01 43.988C1030.1 39.8728 1037.83 37.8159 1046.21 37.8159ZM1231.92 96.5575C1231.92 99.9628 1231.71 103.51 1231.28 107.199H1148.92C1149.48 114.577 1151.82 120.253 1155.94 124.226C1160.2 128.057 1165.38 129.972 1171.48 129.972C1180.56 129.972 1186.87 126.141 1190.42 118.479H1229.15C1227.17 126.283 1223.56 133.306 1218.3 139.55C1213.19 145.793 1206.74 150.688 1198.93 154.235C1191.13 157.782 1182.4 159.556 1172.75 159.556C1161.12 159.556 1150.76 157.073 1141.68 152.107C1132.6 147.14 1125.51 140.047 1120.4 130.823C1115.29 121.6 1112.74 110.817 1112.74 98.473C1112.74 86.1287 1115.22 75.3456 1120.18 66.1225C1125.29 56.8994 1132.39 49.8058 1141.47 44.8393C1150.55 39.8728 1160.98 37.3902 1172.75 37.3902C1184.25 37.3902 1194.46 39.8027 1203.4 44.6265C1212.34 49.4503 1219.29 56.3322 1224.26 65.2712C1229.36 74.2101 1231.92 84.6389 1231.92 96.5575ZM1194.68 86.9801C1194.68 80.7366 1192.55 75.7713 1188.29 72.0818C1184.03 68.3923 1178.71 66.5482 1172.33 66.5482C1166.23 66.5482 1161.05 68.3222 1156.79 71.869C1152.68 75.4158 1150.12 80.4536 1149.13 86.9801H1194.68Z" fill="white"/>
</svg>
